<?xml version="1.0" encoding="utf-8"?>
<!-- Generator: Adobe Illustrator 15.0.0, SVG Export Plug-In  -->
<!DOCTYPE svg PUBLIC "-//W3C//DTD SVG 1.1//EN" "http://www.w3.org/Graphics/SVG/1.1/DTD/svg11.dtd" [
	<!ENTITY ns_flows "http://ns.adobe.com/Flows/1.0/">
]>
<svg version="1.1"
	 xmlns="http://www.w3.org/2000/svg" xmlns:xlink="http://www.w3.org/1999/xlink" xmlns:a="http://ns.adobe.com/AdobeSVGViewerExtensions/3.0/"
	 x="0px" y="0px" width="2648px" height="1430px" viewBox="0 0.002 2648 1430" enable-background="new 0 0.002 2648 1430"
	 xml:space="preserve">
<defs>
</defs>
<path fill="#D73333" d="M1406.772,872.85c0-14.908-12.082-26.992-26.988-26.992h-102.32c-14.909,0-26.991,12.084-26.991,26.992
	v47.902c0,14.909,12.082,26.99,26.991,26.99h102.32c14.906,0,26.988-12.081,26.988-26.99v-11.581h9.766v11.581
	c0,14.909,12.082,26.99,26.988,26.99h102.323c14.903,0,26.987-12.081,26.987-26.99V872.85c0-14.908-12.084-26.992-26.987-26.992
	h-102.323c-14.906,0-26.988,12.084-26.988,26.992v11.583h-9.766V872.85z M1443.526,872.85h102.323v47.902h-102.323v-11.581h19.291
	c6.83,0,12.366-5.537,12.366-12.367c0-6.835-5.536-12.371-12.366-12.371h-19.291V872.85z M1379.784,920.752h-102.32V872.85h102.32
	v11.583h-19.291c-6.833,0-12.369,5.536-12.369,12.371c0,6.83,5.536,12.367,12.369,12.367h19.291V920.752z"/>
<path fill="#979297" d="M1763.362,859.846c0-14.906-12.08-26.989-26.986-26.989h-102.32c-14.909,0-26.991,12.083-26.991,26.989
	v47.903c0,14.909,12.082,26.989,26.991,26.989h102.32c14.906,0,26.986-12.08,26.986-26.989v-11.581h9.768v11.581
	c0,14.909,12.08,26.989,26.986,26.989h102.323c14.905,0,26.987-12.08,26.987-26.989v-47.903c0-14.906-12.082-26.989-26.987-26.989
	h-102.323c-14.906,0-26.986,12.083-26.986,26.989v11.583h-9.768V859.846z M1800.116,859.846h102.323v47.903h-102.323v-11.581h19.291
	c6.832,0,12.368-5.538,12.368-12.367c0-6.835-5.536-12.372-12.368-12.372h-19.291V859.846z M1736.376,907.749h-102.32v-47.903
	h102.32v11.583h-19.291c-6.834,0-12.369,5.537-12.369,12.372c0,6.829,5.535,12.367,12.369,12.367h19.291V907.749z"/>
<path fill="#979297" d="M936.858,598.515c0-16.091-13.04-29.133-29.13-29.133H797.287c-16.092,0-29.133,13.042-29.133,29.133v51.705
	c0,16.092,13.041,29.132,29.133,29.132h110.441c16.09,0,29.13-13.04,29.13-29.132v-12.5h10.541v12.5
	c0,16.092,13.04,29.132,29.13,29.132h110.445c16.086,0,29.128-13.04,29.128-29.132v-51.705c0-16.091-13.042-29.133-29.128-29.133
	H976.529c-16.09,0-29.13,13.042-29.13,29.133v12.502h-10.541V598.515z M976.529,598.515h110.445v51.705H976.529v-12.5h20.823
	c7.372,0,13.35-5.977,13.35-13.35c0-7.377-5.978-13.353-13.35-13.353h-20.823V598.515z M907.728,650.22H797.287v-51.705h110.441
	v12.502h-20.821c-7.376,0-13.352,5.976-13.352,13.353c0,7.373,5.976,13.35,13.352,13.35h20.821V650.22z"/>
<path fill="#979297" d="M991.24,476.355c0-13.836-11.213-25.05-25.048-25.05H871.23c-13.837,0-25.051,11.214-25.051,25.05v44.458
	c0,13.838,11.214,25.049,25.051,25.049h94.962c13.835,0,25.048-11.211,25.048-25.049v-10.747h9.064v10.747
	c0,13.838,11.212,25.049,25.047,25.049h94.966c13.831,0,25.046-11.211,25.046-25.049v-44.458c0-13.836-11.215-25.05-25.046-25.05
	h-94.966c-13.835,0-25.047,11.214-25.047,25.05v10.75h-9.064V476.355z M1025.351,476.355h94.966v44.458h-94.966v-10.747h17.904
	c6.339,0,11.48-5.141,11.48-11.479c0-6.343-5.141-11.482-11.48-11.482h-17.904V476.355z M966.192,520.813H871.23v-44.458h94.962
	v10.75h-17.904c-6.341,0-11.479,5.139-11.479,11.482c0,6.338,5.138,11.479,11.479,11.479h17.904V520.813z"/>
<path fill="#979297" d="M1035.198,357.189c0-13.836-11.214-25.051-25.048-25.051h-94.963c-13.836,0-25.05,11.215-25.05,25.051
	v44.458c0,13.837,11.214,25.049,25.05,25.049h94.963c13.834,0,25.048-11.212,25.048-25.049v-10.748h9.064v10.748
	c0,13.837,11.212,25.049,25.047,25.049h94.966c13.832,0,25.046-11.212,25.046-25.049v-44.458c0-13.836-11.214-25.051-25.046-25.051
	h-94.966c-13.835,0-25.047,11.215-25.047,25.051v10.75h-9.064V357.189z M1069.309,357.189h94.966v44.458h-94.966v-10.748h17.904
	c6.339,0,11.479-5.14,11.479-11.477c0-6.344-5.14-11.483-11.479-11.483h-17.904V357.189z M1010.15,401.647h-94.963v-44.458h94.963
	v10.75h-17.904c-6.341,0-11.48,5.139-11.48,11.483c0,6.337,5.139,11.477,11.48,11.477h17.904V401.647z"/>
<path fill="#979297" d="M2059.036,1346.002c0-16.686-13.521-30.207-30.205-30.207h-114.517c-16.685,0-30.209,13.521-30.209,30.207
	v53.613c0,16.686,13.524,30.207,30.209,30.207h114.517c16.684,0,30.205-13.521,30.205-30.207v-12.961h10.93v12.961
	c0,16.686,13.521,30.207,30.205,30.207h114.521c16.681,0,30.203-13.521,30.203-30.207v-53.613c0-16.686-13.522-30.207-30.203-30.207
	h-114.521c-16.685,0-30.205,13.521-30.205,30.207v12.965h-10.93V1346.002z M2100.171,1346.002h114.521v53.613h-114.521v-12.961
	h21.59c7.645,0,13.843-6.199,13.843-13.842c0-7.65-6.198-13.846-13.843-13.846h-21.59V1346.002z M2028.831,1399.615h-114.517
	v-53.613h114.517v12.965h-21.59c-7.646,0-13.845,6.195-13.845,13.846c0,7.643,6.198,13.842,13.845,13.842h21.59V1399.615z"/>
<path fill="#979297" d="M2397.39,1338.881c0-12.752-10.334-23.086-23.084-23.086h-87.519c-12.752,0-23.086,10.334-23.086,23.086
	v40.973c0,12.752,10.334,23.084,23.086,23.084h87.519c12.75,0,23.084-10.332,23.084-23.084v-9.906h8.352v9.906
	c0,12.752,10.334,23.084,23.084,23.084h87.521c12.746,0,23.082-10.332,23.082-23.084v-40.973c0-12.752-10.336-23.086-23.082-23.086
	h-87.521c-12.75,0-23.084,10.334-23.084,23.086v9.906h-8.352V1338.881z M2428.825,1338.881h87.521v40.973h-87.521v-9.906h16.5
	c5.841,0,10.58-4.736,10.58-10.578c0-5.846-4.739-10.582-10.58-10.582h-16.5V1338.881z M2374.306,1379.854h-87.519v-40.973h87.519
	v9.906h-16.5c-5.845,0-10.58,4.736-10.58,10.582c0,5.842,4.735,10.578,10.58,10.578h16.5V1379.854z"/>
<path fill="#979297" d="M520.527,1050.329c0-11.123-9.013-20.137-20.134-20.137h-76.337c-11.121,0-20.136,9.014-20.136,20.137
	v35.737c0,11.121,9.015,20.135,20.136,20.135h76.337c11.121,0,20.134-9.014,20.134-20.135v-8.64h7.285v8.64
	c0,11.121,9.014,20.135,20.135,20.135h76.339c11.118,0,20.133-9.014,20.133-20.135v-35.737c0-11.123-9.015-20.137-20.133-20.137
	h-76.339c-11.121,0-20.135,9.014-20.135,20.137v8.641h-7.285V1050.329z M547.948,1050.329h76.339v35.737h-76.339v-8.64h14.392
	c5.096,0,9.228-4.133,9.228-9.227c0-5.1-4.132-9.23-9.228-9.23h-14.392V1050.329z M500.394,1086.066h-76.337v-35.737h76.337v8.641
	H486c-5.096,0-9.227,4.131-9.227,9.23c0,5.094,4.131,9.227,9.227,9.227h14.393V1086.066z"/>
<path fill="#979297" d="M2647.404,1001.728c-0.265-5.34-1.468-10.414-3.454-15.06c-2.354-5.52-5.813-10.482-10.095-14.632
	c-2.13-2.061-4.47-3.905-6.966-5.517l-34.379-27.227v-70.269c0-15.127-6.18-28.866-16.127-38.819
	c-9.953-9.949-23.694-16.127-38.821-16.127h-103.164l-36.698-29.063c-2.095-1.661-4.861-1.926-7.369-1.854
	c-2.509-0.071-5.063,0.519-7.379,1.854l-36.847,29.063h-98.791c-15.125,0-28.867,6.178-38.817,16.128
	c-9.912,9.914-16.068,23.649-16.068,38.818h-0.063v66.319l-43.137,34.023l-0.258,0.755c-0.735,0.626-1.48,1.242-2.178,1.914
	c-4.283,4.149-7.736,9.112-10.097,14.632c-1.981,4.646-3.187,9.72-3.45,15.06c-0.113,0.731-0.179,1.49-0.179,2.256v20.014v0.005
	v24.471v205.705v0.004c0,0.006,0.004,0.01,0.004,0.016c0,0.555,0.032,1.098,0.095,1.636c0.147,4.038,0.883,7.931,2.063,11.634
	c0.057,0.176,0.096,0.355,0.154,0.531c0.229,0.693,0.506,1.365,0.769,2.043c0.183,0.484,0.345,0.982,0.545,1.459
	c0.05,0.111,0.112,0.215,0.158,0.326c0.37,0.836,0.786,1.643,1.202,2.451c0.254,0.498,0.488,1.008,0.761,1.494
	c0.409,0.727,0.866,1.418,1.312,2.117c0.338,0.525,0.644,1.068,1,1.58c0.394,0.563,0.838,1.09,1.258,1.633
	c0.914,1.193,1.886,2.336,2.914,3.434c0.396,0.424,0.771,0.871,1.183,1.279c0.03,0.027,0.063,0.053,0.095,0.082
	c0.073,0.074,0.141,0.156,0.215,0.23c0.653,0.631,1.356,1.206,2.045,1.799c0.326,0.277,0.629,0.574,0.963,0.844
	c0.769,0.623,1.576,1.193,2.388,1.766c0.37,0.262,0.722,0.547,1.099,0.797c0.789,0.521,1.61,0.988,2.428,1.461
	c0.443,0.254,0.867,0.533,1.32,0.771c0.727,0.391,1.485,0.723,2.237,1.07c0.588,0.275,1.163,0.568,1.763,0.818
	c0.08,0.031,0.153,0.074,0.234,0.105c0.572,0.232,1.167,0.406,1.75,0.615c0.723,0.258,1.436,0.539,2.171,0.76
	c0.509,0.154,1.034,0.26,1.545,0.396c0.897,0.234,1.782,0.486,2.696,0.668c0.593,0.119,1.205,0.182,1.806,0.275
	c0.845,0.131,1.677,0.291,2.537,0.375c1.474,0.148,2.968,0.225,4.476,0.225H2602.4c1.507,0,2.998-0.076,4.474-0.225
	c0.881-0.086,1.735-0.246,2.604-0.385c0.578-0.094,1.168-0.15,1.738-0.266c0.928-0.182,1.83-0.438,2.734-0.676
	c0.5-0.133,1.014-0.236,1.506-0.387c0.748-0.228,1.467-0.504,2.198-0.77c0.573-0.208,1.164-0.379,1.729-0.607
	c0.08-0.031,0.152-0.074,0.229-0.105c0.606-0.254,1.19-0.551,1.785-0.826c0.743-0.346,1.493-0.674,2.215-1.059
	c0.464-0.248,0.903-0.531,1.356-0.795c0.801-0.467,1.613-0.924,2.386-1.436c0.405-0.27,0.786-0.574,1.181-0.857
	c0.78-0.553,1.561-1.1,2.303-1.699c0.375-0.307,0.719-0.641,1.082-0.955c0.651-0.561,1.315-1.104,1.935-1.701
	c0.071-0.068,0.133-0.146,0.202-0.215c0.035-0.035,0.074-0.061,0.107-0.096c0.477-0.471,0.91-0.984,1.367-1.475
	c0.715-0.773,1.413-1.559,2.077-2.381c0.662-0.82,1.321-1.643,1.925-2.506c0.313-0.451,0.582-0.93,0.881-1.391
	c0.492-0.764,0.992-1.523,1.438-2.318c0.234-0.418,0.43-0.854,0.65-1.279c0.465-0.891,0.922-1.785,1.326-2.709
	c0.034-0.088,0.086-0.17,0.121-0.256c0.157-0.371,0.277-0.76,0.426-1.133c0.321-0.813,0.646-1.621,0.922-2.457
	c0.131-0.389,0.224-0.787,0.342-1.184c0.275-0.908,0.547-1.813,0.759-2.742c0.106-0.459,0.168-0.93,0.259-1.391
	c0.172-0.875,0.359-1.744,0.477-2.633c0.174-1.316,0.289-2.645,0.342-3.984c0.005-0.053,0.009-0.104,0.013-0.154
	c0.063-0.537,0.095-1.09,0.095-1.641v-0.004v-230.176v-0.005v-0.009v-20.005C2647.583,1003.218,2647.519,1002.459,2647.404,1001.728
	 M2618.603,1029.086v19.387v200.625l-139.969-110.086L2618.603,1029.086z M2229.017,852.811c4.175-4.171,9.914-6.759,16.218-6.759
	h290.246c6.302,0,12.043,2.586,16.215,6.759c4.175,4.17,6.761,9.913,6.761,16.214v158.837v13.218l-101.154,78.792
	c-21.147-16.666-45.215-20.584-66.727-20.555c-21.514,0.033-44.813,4.016-65.912,20.555l-102.406-78.792v-9.604v-0.004V869.024
	h-0.062C2222.195,862.765,2224.81,857.021,2229.017,852.811 M2302.216,1139.165l-140.039,109.778l-0.123-219.855L2302.216,1139.165z
	 M2178.251,1269.896l172.201-134.291c19.143-14.912,61.334-14.678,79.734,0l168.264,134.291H2178.251z"/>
<path fill-rule="evenodd" clip-rule="evenodd" fill="#979297" d="M2277.55,921.959h216.737c3.269,0,5.933-2.666,5.933-5.925
	c0-3.26-2.674-5.925-5.933-5.925H2277.55c-3.25,0-5.931,2.673-5.931,5.925C2271.619,919.287,2274.29,921.959,2277.55,921.959"/>
<path fill-rule="evenodd" clip-rule="evenodd" fill="#979297" d="M2277.55,952.604h216.737c3.269,0,5.933-2.665,5.933-5.924
	s-2.674-5.925-5.933-5.925H2277.55c-3.25,0-5.931,2.669-5.931,5.925C2271.619,949.931,2274.29,952.604,2277.55,952.604"/>
<path fill-rule="evenodd" clip-rule="evenodd" fill="#979297" d="M2277.55,983.25h216.737c3.269,0,5.933-2.668,5.933-5.928
	c0-3.255-2.674-5.923-5.933-5.923H2277.55c-3.25,0-5.931,2.672-5.931,5.923C2271.619,980.575,2274.29,983.25,2277.55,983.25"/>
<path fill-rule="evenodd" clip-rule="evenodd" fill="#979297" d="M2414.743,1060.615h73.434c3.138,0,5.699-2.563,5.699-5.698
	c0-3.133-2.569-5.698-5.699-5.698h-73.434c-3.125,0-5.693,2.569-5.693,5.698C2409.05,1058.042,2411.608,1060.615,2414.743,1060.615"
	/>
<path fill-rule="evenodd" clip-rule="evenodd" fill="#979297" d="M782.326,863.18h237.786c3.572,0,6.494-2.923,6.494-6.502
	c0-3.574-2.934-6.495-6.494-6.495H782.326c-3.572,0-6.502,2.929-6.502,6.495C775.824,860.249,778.749,863.18,782.326,863.18"/>
<path fill="#979297" d="M1229.3,1197.482V778.16c0-42.814-34.834-77.649-77.651-77.649H741.476c-42.815,0-77.65,34.835-77.65,77.649
	v570.27c0,42.814,34.835,77.645,77.65,77.645h248.829c2.14,0,4.248-0.303,6.271-0.889c3.761-0.863,7.324-2.668,10.284-5.408
	l215.993-199.754C1229.067,1214.277,1231.509,1205.57,1229.3,1197.482 M1018.731,1346.592l8.228-102.422
	c1.341-16.75,15.553-29.869,32.354-29.869c0.865,0,1.741,0.039,2.609,0.105l92.29,7.412L1018.731,1346.592z M709.005,1348.43V778.16
	c0-17.903,14.564-32.468,32.47-32.468h410.174c17.903,0,32.47,14.564,32.47,32.468v400.732l-118.579-9.52
	c-2.065-0.164-4.164-0.25-6.227-0.25c-40.18,0-74.175,31.373-77.393,71.432l-11.273,140.34H741.476
	C723.569,1380.895,709.005,1366.33,709.005,1348.43"/>
<path fill-rule="evenodd" clip-rule="evenodd" fill="#979297" d="M782.326,896.8h237.786c3.572,0,6.494-2.93,6.494-6.499
	c0-3.577-2.934-6.504-6.494-6.504H782.326c-3.572,0-6.502,2.932-6.502,6.504C775.824,893.863,778.749,896.8,782.326,896.8"/>
<path fill-rule="evenodd" clip-rule="evenodd" fill="#979297" d="M782.326,930.417h237.786c3.572,0,6.494-2.925,6.494-6.499
	c0-3.571-2.934-6.5-6.494-6.5H782.326c-3.572,0-6.502,2.929-6.502,6.5C775.824,927.485,778.749,930.417,782.326,930.417"/>
<path fill-rule="evenodd" clip-rule="evenodd" fill="#979297" d="M782.326,964.035h237.786c3.572,0,6.494-2.921,6.494-6.495v-0.004
	c0-3.575-2.934-6.499-6.494-6.499H782.326c-3.572,0-6.502,2.931-6.502,6.499v0.004C775.824,961.106,778.749,964.035,782.326,964.035
	"/>
<path fill-rule="evenodd" clip-rule="evenodd" fill="#979297" d="M936.332,1098.514h83.779c3.573,0,6.495-2.926,6.495-6.498v-0.006
	c0-3.576-2.935-6.494-6.495-6.494h-83.779c-3.572,0-6.503,2.926-6.503,6.494v0.006
	C929.829,1095.582,932.753,1098.514,936.332,1098.514"/>
<path fill="#D73333" d="M238.279,1257.893c-30.729,0-55.729,25.002-55.729,55.73s25,55.73,55.729,55.73
	c30.728,0,55.729-25.002,55.729-55.73S269.007,1257.893,238.279,1257.893"/>
<path fill="#D73333" d="M374.635,1205.387l-0.211-0.193c-0.05-0.051-0.173-0.158-0.224-0.205
	c-6.221-5.553-12.984-10.822-20.101-15.666c-5.023-3.408-10.23-6.607-15.507-9.523c-0.409-0.33-0.859-0.625-1.345-0.869l-5.145-2.59
	c-7.577-3.811-15.476-7.162-23.495-9.955c-8.011-2.801-16.285-5.096-24.584-6.826l-0.127-0.029c-0.123-0.023-0.246-0.049-0.365-0.07
	l-0.382-0.063c-0.049-0.01-0.096-0.02-0.147-0.025c-6.392-1.291-12.913-2.268-19.385-2.91c-4.072-0.404-8.246-0.681-12.425-0.824
	c-0.513-0.115-1.051-0.172-1.596-0.172h-0.037l-6.165,0.031c-8.498,0.039-17.057,0.639-25.439,1.779
	c-8.354,1.141-16.742,2.852-24.931,5.086c-0.028,0.006-0.059,0.014-0.087,0.023c-0.293,0.063-0.58,0.141-0.854,0.238l-0.058,0.02
	c-7.914,2.201-15.796,4.949-23.437,8.162c-7.845,3.303-15.461,7.101-22.628,11.287c-7.242,4.223-14.351,9.029-21.128,14.281
	c-6.713,5.2-13.141,10.895-19.102,16.918c-3.814,3.832-5.906,8.941-5.881,14.373c0.025,5.241,2.015,10.176,5.617,13.938
	c0.223,0.258,0.469,0.5,0.729,0.723c3.777,3.574,8.705,5.537,13.931,5.537c5.323-0.021,10.246-2.004,14.002-5.594
	c0.25-0.217,0.482-0.447,0.697-0.689c4.653-4.671,9.641-9.072,14.827-13.092c5.249-4.063,10.899-7.867,16.791-11.311
	c5.808-3.391,11.9-6.432,18.107-9.041c6.244-2.619,12.596-4.826,18.877-6.551l0.021-0.002c0.24-0.055,0.479-0.119,0.716-0.191
	c6.407-1.725,12.929-3.041,19.384-3.91c6.651-0.9,13.385-1.371,20.033-1.404l2.787-0.012c5.769,0.076,11.604,0.486,17.354,1.216
	c6.615,0.845,13.307,2.147,19.887,3.872c0.066,0.02,0.136,0.037,0.208,0.055c0.075,0.021,0.15,0.041,0.226,0.059
	c0.039,0.008,0.081,0.02,0.12,0.029c5.034,1.348,10.057,2.967,14.933,4.816c4.984,1.895,9.942,4.076,14.725,6.49l2.69,1.352
	c5.039,2.666,9.987,5.643,14.702,8.859c5.553,3.781,10.923,7.98,15.969,12.484c3.723,3.314,8.516,5.141,13.498,5.141
	c0.387,0,0.773-0.012,1.161-0.033c5.155-0.293,9.946-2.497,13.507-6.201c0.039-0.041,0.079-0.084,0.119-0.127
	c0.04-0.039,0.138-0.145,0.172-0.188l0.174-0.191c0.054-0.059,0.106-0.115,0.158-0.178c3.523-4.03,5.292-9.184,4.987-14.528
	C380.661,1213.782,378.416,1208.949,374.635,1205.387"/>
<path fill="#D73333" d="M442.211,1153.604c-0.351-6.035-2.95-11.586-7.334-15.699c-0.142-0.148-0.29-0.293-0.445-0.432
	c-9.162-8.17-19.064-15.89-29.433-22.939c-10.323-7.018-21.162-13.396-32.219-18.967c-11.106-5.598-22.688-10.514-34.419-14.612
	c-11.597-4.054-23.534-7.378-35.492-9.885c-0.116-0.031-0.23-0.063-0.35-0.083c-0.334-0.073-0.614-0.128-0.844-0.167
	c-0.083-0.013-0.168-0.024-0.251-0.035c-0.087-0.017-0.171-0.032-0.258-0.048c-9.424-1.909-19.037-3.356-28.579-4.3
	c-9.321-0.918-18.842-1.386-28.297-1.386l-1.331,0.005c-12.473,0.055-25.019,0.929-37.294,2.598
	c-12.125,1.648-24.282,4.113-36.143,7.33c-0.214,0.047-0.428,0.104-0.638,0.167l-0.594,0.189l-0.1,0.031
	c-11.74,3.25-23.393,7.301-34.64,12.041c-11.45,4.824-22.615,10.398-33.186,16.568c-10.68,6.234-21.105,13.273-30.988,20.924
	c-9.831,7.609-19.23,15.922-27.927,24.707c-4.392,4.422-6.801,10.297-6.776,16.549c0.024,6.242,2.472,12.102,6.899,16.492
	c4.408,4.369,10.253,6.777,16.461,6.777c6.344-0.025,12.2-2.477,16.588-6.902c7.326-7.398,15.201-14.371,23.411-20.732
	c8.141-6.316,16.854-12.193,25.887-17.467c8.953-5.223,18.348-9.908,27.932-13.926c9.615-4.035,19.472-7.447,29.294-10.141
	c0.106-0.025,0.211-0.049,0.319-0.08c0.271-0.064,0.386-0.088,0.803-0.224c0.026-0.007,0.056-0.019,0.082-0.024
	c9.877-2.652,19.946-4.682,29.942-6.033c10.253-1.393,20.642-2.125,30.879-2.17l1.137-0.002c9.968,0,20.072,0.639,30.035,1.9
	c10.262,1.307,20.593,3.316,30.704,5.971c0.089,0.023,0.176,0.045,0.264,0.064c0.004,0.004,0.006,0.004,0.011,0.004
	c7.999,2.109,15.973,4.668,23.711,7.602c7.706,2.918,15.36,6.283,22.75,10c9.242,4.66,18.292,9.992,26.888,15.848
	c8.59,5.852,16.888,12.334,24.657,19.268c0.031,0.027,0.063,0.057,0.096,0.082c4.266,3.76,9.739,5.834,15.431,5.834
	c0.451,0,0.905-0.016,1.36-0.039c6.21-0.357,11.91-3.096,16.05-7.705c0.024-0.029,0.048-0.057,0.074-0.084
	C440.48,1165.822,442.565,1159.83,442.211,1153.604"/>
<path fill="#3F55A2" d="M1127.273,110.918c0,10.013,8.118,18.131,18.132,18.131c10.013,0,18.132-8.118,18.132-18.131
	c0-10.013-8.119-18.131-18.132-18.131C1135.392,92.787,1127.273,100.905,1127.273,110.918"/>
<path fill="#3F55A2" d="M1068.067,110.918c0,10.013,8.116,18.131,18.131,18.131c10.011,0,18.129-8.118,18.129-18.131
	c0-10.013-8.118-18.131-18.129-18.131C1076.183,92.787,1068.067,100.905,1068.067,110.918"/>
<path fill="#3F55A2" d="M874.626,183.148c0,11.416-9.254,20.669-20.668,20.669c-11.417,0-20.672-9.253-20.672-20.669
	s9.255-20.67,20.672-20.67C865.372,162.479,874.626,171.732,874.626,183.148"/>
<path fill="#3F55A2" d="M942.129,183.148c0,11.416-9.253,20.669-20.671,20.669c-11.417,0-20.668-9.253-20.668-20.669
	s9.251-20.67,20.668-20.67C932.876,162.479,942.129,171.732,942.129,183.148"/>
<path fill="#3F55A2" d="M1009.629,183.148c0,11.416-9.252,20.669-20.67,20.669c-11.417,0-20.668-9.253-20.668-20.669
	s9.251-20.67,20.668-20.67C1000.377,162.479,1009.629,171.732,1009.629,183.148"/>
<path fill="#3F55A2" d="M1089.347,0c-56.633,0-105.887,24.601-130.503,60.571c-13.119-2.527-26.844-3.877-40.975-3.877
	c-92.55,0-167.839,57.618-167.839,128.447c0,44.522,29.756,83.82,74.844,106.875l12.97,70.835l57.396-50.434
	c7.404,0.766,14.953,1.17,22.629,1.17c74.393,0,137.626-37.236,159.574-88.632c3.928,0.244,7.895,0.376,11.904,0.376
	c6.728,0,13.352-0.355,19.847-1.027l50.345,44.238l11.374-62.133c39.549-20.221,65.651-54.691,65.651-93.744
	C1236.564,50.54,1170.523,0,1089.347,0 M1021.817,256.747c-27.547,21.084-64.462,32.693-103.948,32.693
	c-6.681,0-13.456-0.35-20.143-1.043c-0.83-0.085-1.66-0.128-2.487-0.128c-5.836,0-11.51,2.118-15.938,6.008L853.92,316.58
	l-5.292-28.913c-1.354-7.391-6.071-13.732-12.76-17.151c-38.63-19.752-61.692-51.666-61.692-85.375
	c0-26.565,14.114-51.996,39.741-71.608c27.548-21.082,64.465-32.693,103.952-32.693c39.486,0,76.401,11.611,103.948,32.693
	c25.629,19.612,39.744,45.043,39.744,71.608C1061.562,211.704,1047.446,237.136,1021.817,256.747 M1159.921,184.91
	c-6.69,3.42-11.406,9.76-12.76,17.15l-3.698,20.211l-18.33-16.106c-4.428-3.89-10.101-6.009-15.939-6.009
	c-0.826,0-1.656,0.042-2.486,0.129c-5.765,0.597-11.606,0.9-17.361,0.9c-1.652,0-3.297-0.034-4.935-0.083
	c0.851-5.231,1.295-10.557,1.295-15.961c0-52.818-41.874-98.283-101.543-117.993c4.482-5.297,9.759-10.307,15.809-14.937
	c23.647-18.098,55.388-28.065,89.375-28.065c33.986,0,65.724,9.967,89.374,28.065c21.73,16.63,33.697,38.1,33.697,60.454
	C1212.418,141.096,1192.792,168.102,1159.921,184.91"/>
<path fill="#979297" d="M1940.907,1185.5c-1.986,0-4.002-0.508-5.84-1.582c-36.174-21.084-58.646-60.145-58.646-101.939
	c0-65.034,52.912-117.943,117.947-117.943s117.942,52.909,117.942,117.943c0,41.473-22.207,80.379-57.954,101.541
	c-5.523,3.27-12.648,1.439-15.916-4.08c-3.268-5.523-1.441-12.648,4.082-15.918c28.711-16.998,46.551-48.244,46.551-81.543
	c0-52.221-42.484-94.705-94.705-94.705c-52.225,0-94.707,42.484-94.707,94.705c0,33.559,18.053,64.926,47.109,81.863
	c5.545,3.23,7.42,10.345,4.188,15.889C1948.798,1183.436,1944.903,1185.5,1940.907,1185.5"/>
<path fill="#979297" d="M1959.769,1143.754c-0.824,0-1.662-0.213-2.43-0.66c-22.592-13.166-36.625-37.559-36.625-63.659
	c0-40.615,33.038-73.655,73.654-73.655c40.611,0,73.654,33.04,73.654,73.655c0,25.896-13.867,50.194-36.195,63.411
	c-2.297,1.361-5.268,0.602-6.631-1.701c-1.362-2.299-0.6-5.27,1.701-6.633c19.394-11.48,31.44-32.586,31.44-55.077
	c0-35.274-28.694-63.973-63.97-63.973c-35.273,0-63.971,28.698-63.971,63.973c0,22.667,12.189,43.854,31.816,55.294
	c2.311,1.346,3.09,4.311,1.745,6.621C1963.06,1142.893,1961.438,1143.754,1959.769,1143.754"/>
<path fill="#979297" d="M2028.685,1081.909c0-18.954-15.363-34.318-34.316-34.318c-18.954,0-34.316,15.364-34.316,34.318
	c0,12.811,7.032,23.962,17.438,29.856v162.699c0,11.023,7.554,19.962,16.879,19.962c9.322,0,16.877-8.938,16.877-19.962v-162.699
	C2021.651,1105.871,2028.685,1094.72,2028.685,1081.909"/>
<path fill="#979297" d="M2112.312,552.556c0-147.231-119.354-266.59-266.586-266.59s-266.59,119.359-266.59,266.59
	c0,143.688,113.684,260.803,256.014,266.36v0.246c0.168-0.072,0.332-0.155,0.504-0.227c3.344,0.125,6.697,0.205,10.072,0.205
	c2.192,0,4.375-0.027,6.555-0.08c0.078,0.033,0.152,0.069,0.226,0.102v-0.102C1996.604,815.46,2112.312,697.525,2112.312,552.556
	 M2063.344,642.617h-73.34c6.875-22.783,11.138-46.809,12.347-71.7h79.651c-1.896,24.942-7.655,49.108-16.983,71.802
	C2064.467,642.655,2063.909,642.617,2063.344,642.617 M2082.44,541.311h-80.094c-1.218-24.881-5.43-48.923-12.305-71.702h77.791
	C2076.319,492.368,2081.29,516.492,2082.44,541.311 M2054.388,440.004h-75.031c-21.207-50.043-55.693-92.361-98.695-121.89
	c50.039,7.349,96.222,30.452,132.636,66.87C2029.812,401.497,2043.577,420.026,2054.388,440.004 M1864.752,343.021
	c25.868,17.891,48.331,41.105,66.198,68.625c5.922,9.122,11.205,18.606,15.914,28.358h-82.112V343.021z M1822.901,469.609v71.702
	h-107.984c1.332-24.681,5.973-48.778,13.746-71.702H1822.901z M1740.79,440.004c4.709-9.752,9.994-19.236,15.916-28.358
	c17.863-27.52,40.33-50.734,66.195-68.625v96.983H1740.79z M1822.901,570.917v71.7h-94.209c-7.764-22.925-12.42-47.016-13.748-71.7
	H1822.901z M1822.901,672.224v96.984c-25.865-17.893-48.332-41.104-66.195-68.624c-5.924-9.126-11.225-18.604-15.932-28.36H1822.901
	z M1864.752,672.224h82.127c-4.704,9.756-10.005,19.234-15.929,28.36c-17.867,27.521-40.33,50.731-66.198,68.624V672.224z
	 M1864.752,642.617v-71.7h107.956c-1.325,24.684-5.982,48.775-13.745,71.7H1864.752z M1864.752,541.311v-71.702h94.239
	c7.773,22.924,12.414,47.021,13.746,71.702H1864.752z M1678.149,384.984c35.213-35.215,79.557-57.97,127.69-66.084
	c-42.463,29.493-76.522,71.504-97.545,121.104h-71.237C1647.868,420.026,1661.638,401.497,1678.149,384.984 M1623.614,469.609
	h73.996c-6.871,22.779-11.086,46.821-12.301,71.702h-76.304C1610.157,516.492,1615.129,492.368,1623.614,469.609 M1609.446,570.917
	h75.859c1.205,24.891,5.471,48.917,12.344,71.7h-71.258C1617.083,619.952,1611.338,595.823,1609.446,570.917 M1641.075,672.224
	h67.248c18.801,44.392,48.054,82.698,84.429,111.4c-43.069-9.783-82.604-31.499-114.603-63.496
	C1663.616,705.593,1651.215,689.494,1641.075,672.224 M1893.481,784.743c37.033-28.824,66.803-67.549,85.854-112.519h71.035
	c-10.139,17.27-22.539,33.369-37.073,47.906C1980.013,753.412,1938.569,775.565,1893.481,784.743"/>
<path fill="#979297" d="M1356.434,777.469c-92.337,0-167.458-75.126-167.458-167.461c0-92.336,75.121-167.462,167.458-167.462
	c92.337,0,167.46,75.126,167.46,167.462C1523.894,702.343,1448.771,777.469,1356.434,777.469 M1356.434,474.756
	c-74.575,0-135.25,60.673-135.25,135.252c0,74.578,60.675,135.251,135.25,135.251c74.578,0,135.253-60.673,135.253-135.251
	C1491.687,535.429,1431.012,474.756,1356.434,474.756"/>
<path fill="#979297" d="M1283.147,593.77c-7.903-7.948-7.868-20.802,0.08-28.694c7.947-7.908,20.793-7.874,28.699,0.074
	l41.351,40.799l59.882-60.121c7.898-7.948,20.75-7.985,28.697-0.079c7.951,7.898,7.984,20.747,0.082,28.694l-74.271,74.656h-0.007
	l-0.075,0.078c-7.944,7.906-20.799,7.869-28.698-0.078L1283.147,593.77z"/>
<path fill="#3F55A2" d="M825.713,499.803c0-37.841-30.682-68.518-68.524-68.518c-23.776,0-44.715,12.11-57.003,30.494
	c19.446,17.106,31.753,42.148,31.753,70.021v14.063h93.774V499.803z"/>
<path fill="#3F55A2" d="M786.727,408.956c16.311-16.313,16.31-42.766,0-59.076c-16.31-16.311-42.763-16.311-59.076,0
	c-16.31,16.311-16.31,42.763,0,59.076C743.958,425.266,770.417,425.268,786.727,408.956"/>
<path fill="#3F55A2" d="M690.687,475.933c-14.661-13.693-34.334-22.088-55.982-22.088c-45.313,0-82.041,36.731-82.041,82.038v55.152
	h164.088v-41.088C716.751,549.947,720.439,506.344,690.687,475.933"/>
<path fill="#3F55A2" d="M670.074,427.108c19.53-19.53,19.53-51.204,0-70.732c-19.529-19.531-51.201-19.531-70.733,0
	c-19.528,19.528-19.528,51.202,0,70.732C618.866,446.636,650.545,446.641,670.074,427.108"/>
<path fill="#979297" d="M163.309,663.415h-0.062v313.772h0.062c0,9.769,3.468,18.597,9.05,24.955
	c5.45,6.201,12.925,10.05,21.108,10.05h417.616c16.59,0,30.159-15.752,30.159-35.005l0.061-32.183l-0.061-281.59
	c0-9.767-3.467-18.596-9.049-24.954c-5.445-6.197-12.922-10.051-21.11-10.051H193.467
	C176.879,628.41,163.309,644.165,163.309,663.415 M618.236,793.591c0.004,58.149,0.002-4.731,0.007,53.422
	c0,10.145-7.074,18.447-15.681,18.447h-0.004c-8.602-0.002-15.677-8.322-15.677-18.447v-30.964v0.116v-22.574
	c-0.004-10.129,7.054-18.449,15.679-18.444l0.002-0.005C611.187,775.142,618.238,783.442,618.236,793.591 M567.958,975.153h-373.24
	V665.45h373.24V975.153z"/>
<path fill="#3F55A2" d="M1832.257,946.742v-0.063H1603.21v0.063c-8.387,0-15.969,3.504-21.428,9.146
	c-5.327,5.508-8.633,13.063-8.633,21.333v422.061c0,16.766,13.527,30.48,30.061,30.48l27.639,0.06l201.408-0.06
	c8.387,0,15.969-3.506,21.428-9.146c5.32-5.505,8.631-13.061,8.631-21.334V977.221
	C1862.315,960.454,1848.787,946.742,1832.257,946.742 M1740.671,1406.512c-49.934,0.002,4.061,0.002-45.875,0.004
	c-8.711,0-15.844-7.15-15.844-15.848v-0.006c0.007-8.691,7.148-15.841,15.844-15.841c19.861,0,25.342,0,26.588-0.002
	c-0.037,0-0.072,0.002-0.1,0.002h19.387c8.697-0.005,15.84,7.128,15.836,15.845l0.004,0.004
	C1756.511,1399.387,1749.382,1406.512,1740.671,1406.512 M1830.509,1355.694h-225.552V978.483h225.552V1355.694z M1800.375,1141.143
	h-17.19c-1.689-6.645-4.324-12.912-7.744-18.658l12.166-12.17c1.045-1.041,1.631-2.457,1.631-3.934c0-1.478-0.586-2.893-1.631-3.937
	l-16.883-16.882c-1.088-1.087-2.512-1.63-3.938-1.63c-1.424,0-2.848,0.543-3.934,1.63l-12.166,12.166
	c-5.75-3.42-12.014-6.055-18.664-7.744v-17.192c0-3.071-2.49-5.564-5.567-5.564h-23.877c-3.073,0-5.563,2.493-5.563,5.564v17.192
	c-6.646,1.689-12.912,4.324-18.66,7.744l-12.166-12.166c-1.09-1.087-2.514-1.63-3.938-1.63c-1.423,0-2.847,0.543-3.935,1.63
	l-16.883,16.882c-2.174,2.175-2.174,5.7,0,7.874l12.166,12.166c-3.42,5.746-6.055,12.014-7.746,18.658h-17.19
	c-3.071,0-5.565,2.494-5.565,5.568v23.875c0,3.076,2.494,5.566,5.565,5.566h17.19c1.691,6.648,4.326,12.916,7.746,18.662
	l-12.166,12.166c-1.043,1.045-1.629,2.459-1.629,3.936s0.586,2.893,1.629,3.936l16.883,16.883c1.088,1.09,2.512,1.631,3.935,1.631
	c1.425,0,2.849-0.541,3.938-1.631l12.166-12.166c5.748,3.422,12.014,6.057,18.66,7.744v17.191c0,3.074,2.49,5.564,5.563,5.564
	h23.877c3.077,0,5.567-2.49,5.567-5.564v-17.191c6.648-1.688,12.914-4.322,18.662-7.744l12.168,12.166
	c1.086,1.09,2.51,1.631,3.934,1.631c1.426,0,2.85-0.541,3.938-1.631l16.883-16.881c2.174-2.176,2.174-5.7,0-7.873l-12.166-12.168
	c3.42-5.744,6.055-12.012,7.744-18.66h17.19c3.073,0,5.565-2.49,5.565-5.566v-23.875
	C1805.94,1143.637,1803.448,1141.143,1800.375,1141.143 M1714.517,1198.549c-22.031,0-39.898-17.865-39.898-39.902
	c0-22.036,17.867-39.898,39.898-39.898c22.039,0,39.902,17.862,39.902,39.898
	C1754.419,1180.684,1736.556,1198.549,1714.517,1198.549"/>
<path fill="#3F55A2" d="M1594.21,225.724c-0.154-4.068-1.07-7.98-2.619-11.604c-1.744-4.086-4.301-7.761-7.473-10.829
	c-3.072-2.969-6.707-5.362-10.714-6.979c-3.907-1.582-8.157-2.459-12.569-2.459h-313.953c-9.142,0-17.465,3.706-23.513,9.67
	c-5.824,5.745-9.536,13.564-9.861,22.193c-0.044,0.403-0.072,0.809-0.072,1.223v170.38c0,0.568,0.049,1.129,0.133,1.673
	c0.197,3.952,1.089,7.706,2.555,11.146c1.744,4.087,4.303,7.761,7.472,10.828c3.07,2.968,6.711,5.361,10.713,6.98
	c3.91,1.58,8.16,2.457,12.573,2.457h313.953c9.139,0,17.465-3.705,23.512-9.67c5.83-5.745,9.545-13.568,9.863-22.199
	c0.047-0.399,0.069-0.807,0.069-1.215v-170.38C1594.279,226.529,1594.257,226.123,1594.21,225.724 M1572.827,230.702v160.77
	l-103.693-79.331L1572.827,230.702z M1557.911,215.305l-142.423,113.676c-3.235,2.576-7.233,3.8-11.565,3.8
	c-4.435,0-8.529-1.273-11.803-3.98h-0.117l-142.201-113.496H1557.911z M1337.345,311.168l-102.457,78.637V230.702L1337.345,311.168z
	 M1246.882,408.951c-0.48,0-0.947-0.035-1.409-0.087l109.378-83.947l20.152,15.828c10.924,9.239,14.084,12.291,28.92,12.291
	s17.994-3.052,28.92-12.291l0.199-0.258l20.862-16.386l110.261,84.382c-1.059,0.299-2.172,0.468-3.33,0.468H1246.882z"/>
<path fill="#979297" d="M2297.699,555.763h-15.966c-1.566-6.174-4.014-11.992-7.191-17.33l11.299-11.3
	c0.971-0.967,1.516-2.281,1.516-3.654c0-1.37-0.545-2.685-1.516-3.653l-15.679-15.68c-1.009-1.008-2.332-1.512-3.655-1.512
	c-1.324,0-2.646,0.504-3.654,1.512l-11.297,11.298c-5.34-3.175-11.156-5.622-17.332-7.191v-15.965c0-2.853-2.313-5.167-5.17-5.167
	h-22.172c-2.855,0-5.168,2.314-5.168,5.167v15.965c-6.172,1.569-11.992,4.016-17.328,7.191l-11.299-11.298
	c-1.013-1.008-2.332-1.512-3.656-1.512c-1.322,0-2.646,0.504-3.654,1.512l-15.678,15.68c-2.021,2.018-2.021,5.293,0,7.31
	l11.297,11.297c-3.176,5.338-5.623,11.156-7.194,17.33h-15.961c-2.854,0-5.171,2.316-5.171,5.168v22.173
	c0,2.855,2.316,5.168,5.171,5.168h15.961c1.571,6.175,4.019,11.994,7.194,17.332l-11.297,11.297
	c-0.969,0.969-1.514,2.284-1.514,3.654c0,1.37,0.545,2.687,1.514,3.656l15.678,15.678c1.009,1.011,2.332,1.514,3.654,1.514
	c1.324,0,2.644-0.503,3.656-1.514l11.299-11.298c5.336,3.177,11.156,5.623,17.328,7.193v15.962c0,2.856,2.313,5.17,5.168,5.17
	h22.172c2.856,0,5.17-2.314,5.17-5.17v-15.962c6.174-1.57,11.992-4.016,17.33-7.193l11.299,11.298
	c1.008,1.011,2.33,1.514,3.654,1.514c1.323,0,2.646-0.503,3.655-1.514l15.679-15.675c2.02-2.022,2.02-5.294,0-7.313l-11.299-11.299
	c3.178-5.336,5.625-11.155,7.191-17.33h15.966c2.854,0,5.166-2.313,5.166-5.168v-22.173
	C2302.865,558.079,2300.554,555.763,2297.699,555.763 M2217.968,609.071c-20.461,0-37.051-16.592-37.051-37.055
	c0-20.464,16.59-37.052,37.051-37.052c20.467,0,37.055,16.588,37.055,37.052C2255.022,592.479,2238.435,609.071,2217.968,609.071"/>
<path fill="#979297" d="M2174.93,840.886h-19.97c-1.961-7.724-5.021-15.002-8.996-21.68l14.134-14.134
	c1.214-1.211,1.896-2.853,1.896-4.571c0-1.714-0.682-3.357-1.896-4.57l-19.61-19.612c-1.267-1.261-2.92-1.892-4.574-1.892
	c-1.655,0-3.309,0.631-4.571,1.892l-14.132,14.133c-6.678-3.972-13.954-7.034-21.682-8.997v-19.97c0-3.567-2.892-6.464-6.465-6.464
	h-27.736c-3.569,0-6.461,2.896-6.461,6.464v19.97c-7.721,1.963-15.004,5.025-21.678,8.997l-14.133-14.133
	c-1.264-1.261-2.918-1.892-4.572-1.892s-3.308,0.631-4.572,1.892l-19.61,19.612c-2.526,2.525-2.526,6.62,0,9.146l14.132,14.13
	c-3.975,6.678-7.035,13.956-9,21.68h-19.966c-3.569,0-6.468,2.895-6.468,6.465v27.733c0,3.572,2.898,6.466,6.468,6.466h19.966
	c1.965,7.725,5.025,15.003,9,21.681l-14.132,14.13c-1.209,1.213-1.894,2.857-1.894,4.571c0,1.715,0.685,3.36,1.894,4.572
	l19.61,19.614c1.265,1.263,2.918,1.892,4.572,1.892s3.309-0.629,4.572-1.892l14.133-14.135c6.674,3.974,13.957,7.034,21.678,8.997
	v19.968c0,3.572,2.892,6.466,6.461,6.466h27.736c3.573,0,6.465-2.894,6.465-6.466V940.98c7.725-1.963,15.004-5.023,21.682-8.997
	l14.132,14.135c1.263,1.263,2.916,1.892,4.571,1.892c1.654,0,3.308-0.629,4.574-1.892l19.61-19.611c2.524-2.527,2.524-6.621,0-9.146
	l-14.134-14.133c3.975-6.675,7.035-13.953,8.996-21.678h19.97c3.571,0,6.464-2.894,6.464-6.466v-27.733
	C2181.394,843.78,2178.501,840.886,2174.93,840.886 M2075.194,907.565c-25.59,0-46.346-20.752-46.346-46.35
	s20.756-46.349,46.346-46.349c25.604,0,46.352,20.751,46.352,46.349S2100.798,907.565,2075.194,907.565"/>
<path fill="#979297" d="M2273.037,700.367l-11.873,4.149c-2.771-4.183-6.103-7.875-9.854-11.019l5.467-11.34
	c0.47-0.973,0.535-2.09,0.177-3.112c-0.356-1.018-1.103-1.855-2.076-2.322l-15.733-7.586c-1.014-0.486-2.129-0.517-3.113-0.173
	c-0.982,0.343-1.836,1.062-2.325,2.074l-5.464,11.338c-4.795-0.974-9.758-1.282-14.758-0.844l-4.151-11.872
	c-0.741-2.121-3.062-3.24-5.187-2.498l-16.49,5.763c-2.122,0.742-3.241,3.064-2.498,5.185l4.15,11.871
	c-4.183,2.773-7.877,6.107-11.021,9.854l-11.337-5.464c-1.014-0.488-2.127-0.519-3.111-0.175c-0.984,0.344-1.837,1.062-2.326,2.074
	l-7.584,15.735c-0.978,2.026-0.125,4.46,1.899,5.437l11.338,5.464c-0.974,4.796-1.282,9.76-0.843,14.759l-11.87,4.148
	c-2.123,0.742-3.244,3.064-2.502,5.188l5.763,16.488c0.741,2.124,3.066,3.242,5.189,2.5l11.869-4.148
	c2.771,4.184,6.104,7.875,9.853,11.02l-5.463,11.337c-0.468,0.972-0.532,2.092-0.175,3.11c0.355,1.02,1.104,1.856,2.074,2.326
	l15.734,7.585c1.016,0.489,2.129,0.519,3.111,0.175c0.984-0.344,1.837-1.061,2.326-2.075l5.465-11.339
	c4.793,0.976,9.759,1.281,14.755,0.845l4.151,11.871c0.742,2.124,3.062,3.242,5.183,2.501l16.491-5.764
	c2.125-0.742,3.244-3.063,2.502-5.188l-4.148-11.871c4.182-2.772,7.875-6.104,11.018-9.854l11.34,5.466
	c1.011,0.49,2.127,0.52,3.109,0.176c0.983-0.344,1.838-1.062,2.328-2.076l7.584-15.733c0.975-2.027,0.125-4.462-1.9-5.438
	l-11.34-5.466c0.976-4.794,1.281-9.757,0.844-14.757l11.873-4.149c2.121-0.741,3.24-3.063,2.498-5.188l-5.764-16.487
	C2277.479,700.745,2275.16,699.626,2273.037,700.367 M2227.597,760.733c-15.215,5.317-31.865-2.707-37.185-17.926
	c-5.317-15.218,2.707-31.867,17.922-37.185c15.224-5.32,31.869,2.706,37.188,17.924
	C2250.843,738.765,2242.819,755.413,2227.597,760.733"/>
<path fill="#979297" d="M1598.705,733.945l-11.872,4.149c-2.771-4.184-6.104-7.875-9.855-11.02l5.467-11.339
	c0.47-0.973,0.535-2.091,0.177-3.113c-0.354-1.018-1.103-1.854-2.075-2.323l-15.734-7.585c-1.014-0.486-2.129-0.517-3.113-0.173
	c-0.982,0.343-1.836,1.062-2.325,2.074l-5.464,11.338c-4.795-0.973-9.758-1.283-14.758-0.844l-4.15-11.872
	c-0.74-2.12-3.063-3.24-5.188-2.498l-16.49,5.762c-2.122,0.743-3.24,3.065-2.498,5.185l4.15,11.872
	c-4.182,2.771-7.877,6.105-11.021,9.854l-11.337-5.465c-1.014-0.486-2.127-0.518-3.111-0.174s-1.836,1.063-2.326,2.074
	l-7.582,15.733c-0.978,2.028-0.127,4.462,1.897,5.438l11.339,5.464c-0.975,4.796-1.283,9.76-0.844,14.759l-11.87,4.148
	c-2.123,0.742-3.243,3.064-2.5,5.188l5.761,16.489c0.741,2.123,3.066,3.242,5.189,2.499l11.871-4.148
	c2.77,4.185,6.104,7.875,9.852,11.02l-5.464,11.338c-0.468,0.972-0.532,2.091-0.175,3.109c0.355,1.021,1.104,1.857,2.074,2.326
	l15.734,7.585c1.016,0.489,2.129,0.519,3.111,0.175c0.984-0.344,1.837-1.061,2.326-2.075l5.465-11.339
	c4.793,0.976,9.76,1.281,14.757,0.845l4.149,11.871c0.742,2.124,3.063,3.243,5.186,2.501l16.488-5.764
	c2.125-0.742,3.244-3.063,2.502-5.188l-4.148-11.871c4.182-2.771,7.875-6.104,11.018-9.853l11.34,5.465
	c1.012,0.49,2.127,0.52,3.109,0.176c0.986-0.344,1.838-1.062,2.328-2.077l7.584-15.732c0.975-2.027,0.125-4.462-1.9-5.438
	l-11.34-5.466c0.976-4.794,1.283-9.757,0.844-14.757l11.873-4.149c2.121-0.741,3.24-3.063,2.498-5.188l-5.762-16.488
	C1603.149,734.323,1600.828,733.203,1598.705,733.945 M1553.265,794.312c-15.215,5.317-31.865-2.707-37.185-17.926
	c-5.317-15.217,2.707-31.867,17.923-37.185c15.223-5.32,31.868,2.705,37.188,17.924
	C1576.511,772.344,1568.487,788.991,1553.265,794.312"/>
<path fill="#979297" d="M1678.987,776.283l-6.293,2.198c-1.467-2.218-3.232-4.173-5.22-5.839l2.897-6.009
	c0.248-0.515,0.281-1.107,0.092-1.649c-0.188-0.538-0.584-0.982-1.1-1.229l-8.338-4.02c-0.537-0.259-1.129-0.276-1.648-0.092
	c-0.521,0.181-0.975,0.563-1.232,1.098l-2.896,6.009c-2.539-0.516-5.168-0.68-7.819-0.447l-2.198-6.291
	c-0.393-1.123-1.623-1.717-2.75-1.323l-8.736,3.054c-1.125,0.393-1.719,1.623-1.324,2.747l2.197,6.29
	c-2.215,1.469-4.172,3.235-5.838,5.223l-6.008-2.896c-0.537-0.258-1.127-0.275-1.648-0.093s-0.973,0.563-1.233,1.099l-4.017,8.339
	c-0.52,1.072-0.065,2.363,1.006,2.88l6.009,2.896c-0.519,2.542-0.681,5.172-0.448,7.82l-6.289,2.199
	c-1.125,0.393-1.718,1.624-1.326,2.749l3.053,8.735c0.395,1.126,1.627,1.719,2.75,1.325l6.291-2.198
	c1.467,2.218,3.234,4.173,5.22,5.84l-2.896,6.007c-0.248,0.516-0.281,1.108-0.092,1.647c0.189,0.541,0.584,0.983,1.098,1.233
	l8.338,4.019c0.539,0.26,1.129,0.275,1.648,0.093c0.521-0.182,0.975-0.562,1.232-1.099l2.898-6.009
	c2.539,0.518,5.17,0.678,7.817,0.447l2.2,6.29c0.393,1.126,1.621,1.719,2.746,1.325l8.738-3.055
	c1.127-0.393,1.719-1.622,1.326-2.748l-2.199-6.29c2.215-1.47,4.172-3.234,5.84-5.221l6.008,2.896
	c0.535,0.26,1.125,0.275,1.648,0.094c0.52-0.183,0.973-0.563,1.231-1.101l4.019-8.337c0.518-1.074,0.067-2.364-1.006-2.882
	l-6.011-2.896c0.519-2.54,0.681-5.168,0.448-7.817l6.293-2.2c1.121-0.393,1.714-1.623,1.322-2.748l-3.055-8.737
	C1681.341,776.482,1680.11,775.89,1678.987,776.283 M1654.909,808.27c-8.063,2.817-16.885-1.436-19.705-9.498
	c-2.816-8.064,1.435-16.886,9.498-19.704c8.065-2.819,16.887,1.435,19.705,9.497C1667.225,796.63,1662.973,805.45,1654.909,808.27"
	/>
<path fill="#979297" d="M1460.026,787.838l-6.293,2.198c-1.467-2.218-3.232-4.173-5.222-5.839l2.899-6.009
	c0.246-0.515,0.281-1.107,0.09-1.649c-0.188-0.538-0.582-0.982-1.098-1.229l-8.338-4.02c-0.537-0.259-1.129-0.275-1.648-0.092
	c-0.521,0.181-0.975,0.562-1.232,1.098l-2.896,6.009c-2.541-0.516-5.17-0.679-7.817-0.447l-2.2-6.291
	c-0.395-1.123-1.623-1.717-2.75-1.323l-8.738,3.054c-1.123,0.393-1.717,1.623-1.324,2.747l2.199,6.29
	c-2.215,1.469-4.172,3.235-5.838,5.222l-6.01-2.896c-0.535-0.258-1.125-0.275-1.646-0.093s-0.973,0.563-1.233,1.099l-4.019,8.339
	c-0.518,1.072-0.065,2.363,1.008,2.88l6.007,2.896c-0.517,2.542-0.679,5.172-0.446,7.82l-6.289,2.199
	c-1.125,0.393-1.72,1.624-1.326,2.749l3.053,8.735c0.393,1.126,1.625,1.719,2.75,1.326l6.289-2.199
	c1.469,2.218,3.236,4.173,5.224,5.84l-2.897,6.007c-0.248,0.516-0.281,1.108-0.092,1.647c0.188,0.541,0.584,0.984,1.098,1.233
	l8.338,4.019c0.537,0.26,1.129,0.275,1.648,0.093c0.521-0.182,0.975-0.562,1.232-1.099l2.896-6.009
	c2.541,0.518,5.172,0.678,7.817,0.447l2.2,6.29c0.395,1.126,1.623,1.719,2.748,1.325l8.738-3.055
	c1.125-0.392,1.719-1.622,1.326-2.748l-2.201-6.29c2.217-1.469,4.174-3.234,5.84-5.221l6.01,2.896
	c0.535,0.26,1.125,0.275,1.646,0.094c0.521-0.183,0.973-0.563,1.231-1.101l4.021-8.337c0.518-1.074,0.065-2.364-1.008-2.882
	l-6.008-2.896c0.516-2.54,0.678-5.168,0.447-7.818l6.291-2.199c1.123-0.393,1.716-1.623,1.322-2.748l-3.053-8.737
	C1462.38,788.037,1461.149,787.444,1460.026,787.838 M1435.946,819.825c-8.062,2.816-16.885-1.436-19.703-9.499
	c-2.817-8.063,1.437-16.886,9.496-19.704c8.065-2.819,16.889,1.434,19.707,9.497
	C1448.265,808.185,1444.012,817.005,1435.946,819.825"/>
<path fill="#979297" d="M1584.688,638.854l-5.95,2.08c-1.389-2.097-3.059-3.947-4.938-5.522l2.74-5.683
	c0.233-0.487,0.266-1.047,0.088-1.56c-0.178-0.509-0.553-0.929-1.041-1.163l-7.885-3.801c-0.508-0.245-1.068-0.26-1.559-0.087
	c-0.495,0.171-0.922,0.532-1.165,1.039l-2.741,5.682c-2.4-0.488-4.887-0.642-7.395-0.424l-2.08-5.949
	c-0.371-1.062-1.534-1.624-2.6-1.252l-8.265,2.888c-1.06,0.372-1.622,1.535-1.252,2.599l2.082,5.949
	c-2.097,1.389-3.946,3.059-5.522,4.937l-5.685-2.738c-0.505-0.243-1.063-0.26-1.558-0.088c-0.492,0.174-0.92,0.533-1.164,1.04
	l-3.801,7.886c-0.49,1.015-0.062,2.235,0.951,2.724l5.684,2.738c-0.49,2.404-0.643,4.89-0.424,7.395l-5.947,2.08
	c-1.064,0.373-1.627,1.537-1.254,2.6l2.888,8.262c0.37,1.064,1.538,1.625,2.601,1.254l5.947-2.079
	c1.387,2.096,3.059,3.946,4.938,5.522l-2.738,5.681c-0.236,0.487-0.266,1.048-0.088,1.558c0.18,0.512,0.553,0.931,1.039,1.166
	l7.884,3.801c0.511,0.245,1.069,0.261,1.562,0.087c0.494-0.171,0.922-0.53,1.166-1.038l2.74-5.684c2.4,0.49,4.889,0.642,7.395,0.424
	l2.078,5.948c0.371,1.066,1.535,1.626,2.598,1.254l8.264-2.888c1.064-0.371,1.627-1.535,1.254-2.6l-2.08-5.948
	c2.098-1.39,3.947-3.06,5.524-4.938l5.681,2.739c0.508,0.246,1.066,0.26,1.559,0.087c0.492-0.171,0.92-0.532,1.166-1.04l3.801-7.884
	c0.488-1.017,0.063-2.237-0.954-2.726l-5.681-2.739c0.488-2.403,0.64-4.888,0.424-7.394l5.949-2.08
	c1.063-0.371,1.623-1.535,1.25-2.599l-2.887-8.263C1586.913,639.042,1585.751,638.482,1584.688,638.854 M1561.915,669.104
	c-7.623,2.665-15.967-1.357-18.633-8.982c-2.664-7.626,1.355-15.97,8.98-18.635c7.629-2.666,15.971,1.356,18.636,8.982
	C1573.564,658.097,1569.544,666.438,1561.915,669.104"/>
<path fill="#D73333" d="M2343.235,765.12l-5.16,1.803c-1.205-1.818-2.651-3.425-4.283-4.789l2.379-4.928
	c0.201-0.424,0.229-0.909,0.074-1.353c-0.155-0.443-0.479-0.807-0.903-1.01l-6.839-3.297c-0.439-0.213-0.924-0.226-1.35-0.075
	c-0.431,0.148-0.801,0.462-1.013,0.9l-2.377,4.928c-2.082-0.422-4.237-0.557-6.411-0.366l-1.804-5.159
	c-0.323-0.922-1.332-1.408-2.255-1.085l-7.168,2.503c-0.92,0.323-1.407,1.332-1.084,2.254l1.802,5.159
	c-1.815,1.205-3.42,2.653-4.789,4.283l-4.927-2.375c-0.439-0.211-0.924-0.227-1.354-0.076c-0.429,0.149-0.797,0.462-1.011,0.901
	l-3.295,6.84c-0.425,0.879-0.054,1.938,0.825,2.362l4.929,2.375c-0.424,2.084-0.556,4.241-0.368,6.413l-5.158,1.805
	c-0.922,0.322-1.408,1.331-1.086,2.254l2.504,7.165c0.322,0.924,1.334,1.409,2.256,1.088l5.158-1.804
	c1.203,1.818,2.651,3.423,4.283,4.79l-2.377,4.927c-0.203,0.423-0.229,0.909-0.076,1.351c0.155,0.444,0.48,0.808,0.901,1.012
	l6.838,3.297c0.442,0.213,0.929,0.226,1.354,0.075c0.428-0.149,0.799-0.46,1.01-0.901l2.377-4.928
	c2.082,0.424,4.24,0.556,6.412,0.366l1.802,5.16c0.325,0.924,1.332,1.409,2.254,1.087l7.169-2.506
	c0.922-0.321,1.409-1.33,1.086-2.254l-1.804-5.158c1.819-1.206,3.424-2.652,4.791-4.282l4.927,2.374
	c0.441,0.213,0.924,0.227,1.352,0.077c0.428-0.15,0.799-0.462,1.012-0.902l3.296-6.839c0.425-0.881,0.054-1.939-0.825-2.363
	l-4.929-2.375c0.424-2.084,0.556-4.24,0.368-6.413l5.16-1.804c0.92-0.322,1.408-1.331,1.084-2.255l-2.504-7.166
	C2345.165,765.283,2344.157,764.798,2343.235,765.12 M2323.485,791.355c-6.611,2.313-13.849-1.177-16.16-7.79
	c-2.312-6.614,1.178-13.851,7.789-16.162c6.617-2.312,13.851,1.176,16.162,7.791C2333.59,781.808,2330.101,789.044,2323.485,791.355
	"/>
<path fill="#979297" d="M1305.396,785.579l-6.686,2.337c-1.559-2.356-3.435-4.435-5.546-6.203l3.079-6.386
	c0.262-0.547,0.299-1.176,0.097-1.751c-0.199-0.574-0.619-1.045-1.167-1.308l-8.86-4.27c-0.57-0.275-1.199-0.292-1.75-0.099
	c-0.555,0.192-1.035,0.599-1.31,1.167l-3.078,6.385c-2.697-0.549-5.49-0.723-8.307-0.476l-2.337-6.684
	c-0.417-1.194-1.724-1.824-2.92-1.405l-9.284,3.241c-1.192,0.419-1.823,1.726-1.406,2.921l2.335,6.683
	c-2.353,1.561-4.432,3.436-6.203,5.548l-6.384-3.077c-0.568-0.272-1.195-0.292-1.75-0.097c-0.554,0.193-1.034,0.598-1.309,1.166
	l-4.269,8.859c-0.55,1.141-0.071,2.512,1.069,3.061l6.385,3.076c-0.55,2.7-0.723,5.494-0.478,8.309l-6.681,2.337
	c-1.195,0.417-1.826,1.725-1.409,2.92l3.245,9.281c0.417,1.196,1.728,1.826,2.921,1.408l6.682-2.335
	c1.559,2.354,3.436,4.433,5.548,6.203l-3.077,6.383c-0.265,0.547-0.299,1.177-0.1,1.75c0.201,0.575,0.623,1.046,1.169,1.31
	l8.858,4.271c0.571,0.274,1.199,0.292,1.752,0.098c0.554-0.192,1.036-0.596,1.309-1.167l3.078-6.385
	c2.699,0.551,5.494,0.721,8.308,0.477l2.335,6.683c0.417,1.196,1.724,1.825,2.918,1.408l9.285-3.245
	c1.195-0.417,1.826-1.724,1.408-2.92l-2.338-6.683c2.356-1.563,4.436-3.437,6.205-5.547l6.384,3.076
	c0.57,0.276,1.196,0.293,1.751,0.1c0.553-0.194,1.034-0.599,1.31-1.169l4.27-8.857c0.548-1.142,0.07-2.514-1.071-3.063l-6.384-3.077
	c0.55-2.698,0.721-5.492,0.476-8.307l6.684-2.337c1.193-0.417,1.824-1.724,1.405-2.919l-3.242-9.283
	C1307.896,785.792,1306.59,785.162,1305.396,785.579 M1279.813,819.564c-8.565,2.993-17.938-1.525-20.933-10.091
	c-2.993-8.568,1.523-17.942,10.09-20.936c8.57-2.995,17.941,1.523,20.935,10.091
	C1292.901,807.196,1288.382,816.568,1279.813,819.564"/>
<path fill="#979297" d="M1220.324,451.738l-6.686,2.336c-1.559-2.356-3.435-4.434-5.546-6.204l3.079-6.384
	c0.262-0.547,0.299-1.176,0.097-1.751c-0.199-0.574-0.619-1.046-1.167-1.308l-8.86-4.27c-0.569-0.276-1.198-0.293-1.75-0.099
	c-0.555,0.192-1.035,0.599-1.31,1.168l-3.078,6.384c-2.698-0.548-5.491-0.722-8.307-0.476l-2.337-6.683
	c-0.417-1.194-1.724-1.825-2.92-1.406l-9.284,3.243c-1.193,0.418-1.823,1.725-1.406,2.919l2.335,6.683
	c-2.354,1.561-4.431,3.437-6.203,5.548l-6.384-3.076c-0.568-0.274-1.195-0.292-1.75-0.098c-0.553,0.193-1.034,0.598-1.309,1.166
	l-4.269,8.86c-0.551,1.14-0.072,2.511,1.07,3.061l6.384,3.075c-0.55,2.701-0.723,5.494-0.478,8.309l-6.681,2.337
	c-1.195,0.417-1.826,1.724-1.409,2.921l3.245,9.281c0.417,1.195,1.727,1.826,2.92,1.407l6.683-2.335
	c1.559,2.355,3.436,4.433,5.547,6.204l-3.077,6.382c-0.263,0.547-0.298,1.178-0.098,1.75c0.201,0.575,0.622,1.046,1.168,1.311
	l8.858,4.269c0.571,0.276,1.199,0.293,1.752,0.099c0.555-0.194,1.036-0.596,1.309-1.167l3.078-6.385
	c2.698,0.55,5.494,0.721,8.307,0.476l2.336,6.682c0.417,1.197,1.724,1.826,2.918,1.409l9.284-3.246
	c1.196-0.417,1.828-1.723,1.409-2.92l-2.337-6.682c2.355-1.562,4.435-3.437,6.205-5.546l6.384,3.075
	c0.568,0.276,1.196,0.293,1.75,0.1c0.553-0.195,1.034-0.599,1.31-1.169l4.27-8.858c0.549-1.141,0.069-2.512-1.071-3.061
	l-6.384-3.079c0.55-2.698,0.721-5.491,0.476-8.306l6.684-2.336c1.193-0.418,1.823-1.725,1.405-2.92l-3.243-9.283
	C1222.825,451.949,1221.519,451.32,1220.324,451.738 M1194.741,485.722c-8.565,2.993-17.939-1.524-20.933-10.09
	c-2.993-8.568,1.523-17.942,10.09-20.936c8.569-2.994,17.941,1.523,20.935,10.09C1207.83,473.354,1203.311,482.726,1194.741,485.722
	"/>
<path fill="#979297" d="M1572.845,480.112l-6.687,2.337c-1.56-2.357-3.435-4.435-5.546-6.204l3.078-6.385
	c0.264-0.547,0.299-1.176,0.098-1.751c-0.199-0.574-0.619-1.045-1.169-1.308l-8.858-4.27c-0.57-0.276-1.199-0.292-1.75-0.098
	c-0.555,0.191-1.035,0.598-1.312,1.167l-3.077,6.384c-2.697-0.548-5.49-0.722-8.307-0.476l-2.336-6.682
	c-0.418-1.195-1.725-1.826-2.92-1.407l-9.285,3.243c-1.191,0.418-1.823,1.725-1.405,2.919l2.335,6.683
	c-2.354,1.562-4.432,3.437-6.203,5.548l-6.384-3.076c-0.569-0.274-1.196-0.292-1.75-0.098c-0.554,0.193-1.034,0.599-1.31,1.166
	l-4.27,8.86c-0.549,1.14-0.07,2.511,1.07,3.061l6.384,3.075c-0.55,2.701-0.722,5.494-0.478,8.309l-6.682,2.338
	c-1.193,0.417-1.826,1.724-1.408,2.919l3.246,9.282c0.416,1.195,1.727,1.826,2.92,1.408l6.682-2.336
	c1.559,2.356,3.436,4.434,5.549,6.204l-3.079,6.382c-0.263,0.547-0.298,1.178-0.099,1.75c0.201,0.576,0.623,1.047,1.17,1.31
	l8.857,4.27c0.571,0.276,1.198,0.293,1.752,0.099c0.555-0.194,1.035-0.596,1.309-1.167l3.078-6.385
	c2.699,0.55,5.494,0.721,8.308,0.475l2.337,6.683c0.415,1.197,1.723,1.826,2.918,1.409l9.283-3.245
	c1.195-0.418,1.826-1.724,1.408-2.921l-2.338-6.682c2.357-1.562,4.435-3.436,6.205-5.546l6.385,3.075
	c0.568,0.276,1.195,0.293,1.75,0.101c0.554-0.195,1.035-0.599,1.311-1.17l4.27-8.858c0.549-1.141,0.07-2.513-1.071-3.061
	l-6.384-3.079c0.552-2.698,0.72-5.491,0.477-8.306l6.684-2.336c1.193-0.417,1.824-1.724,1.404-2.92l-3.242-9.282
	C1575.345,480.324,1574.038,479.695,1572.845,480.112 M1547.261,514.097c-8.564,2.992-17.939-1.525-20.935-10.091
	c-2.991-8.568,1.524-17.942,10.091-20.936c8.57-2.994,17.941,1.523,20.936,10.091
	C1560.349,501.729,1555.829,511.101,1547.261,514.097"/>
<path fill="#979297" d="M1376.694,796.787l-5.266,1.841c-1.229-1.855-2.707-3.493-4.369-4.887l2.423-5.029
	c0.207-0.432,0.237-0.927,0.077-1.38c-0.154-0.45-0.486-0.823-0.918-1.028l-6.979-3.365c-0.449-0.217-0.943-0.229-1.379-0.077
	c-0.438,0.152-0.814,0.472-1.033,0.919l-2.424,5.029c-2.124-0.431-4.325-0.569-6.543-0.375l-1.84-5.264
	c-0.33-0.94-1.358-1.438-2.302-1.107l-7.313,2.554c-0.939,0.329-1.437,1.359-1.107,2.301l1.838,5.264
	c-1.852,1.229-3.489,2.708-4.886,4.369l-5.028-2.423c-0.446-0.214-0.941-0.23-1.378-0.076c-0.437,0.151-0.815,0.471-1.03,0.918
	l-3.364,6.979c-0.432,0.897-0.056,1.979,0.843,2.412l5.029,2.422c-0.434,2.127-0.569,4.328-0.377,6.546l-5.262,1.841
	c-0.942,0.327-1.438,1.358-1.109,2.299l2.556,7.311c0.328,0.943,1.36,1.439,2.302,1.109l5.262-1.839
	c1.228,1.855,2.707,3.492,4.37,4.886l-2.425,5.028c-0.207,0.432-0.233,0.928-0.076,1.378c0.157,0.454,0.489,0.825,0.92,1.032
	l6.977,3.364c0.45,0.218,0.945,0.229,1.38,0.077c0.438-0.15,0.816-0.47,1.032-0.919l2.424-5.029
	c2.126,0.434,4.327,0.567,6.544,0.374l1.839,5.265c0.329,0.942,1.358,1.438,2.299,1.108l7.315-2.556
	c0.939-0.329,1.438-1.357,1.107-2.3l-1.841-5.266c1.856-1.229,3.495-2.707,4.89-4.368l5.028,2.424
	c0.446,0.218,0.94,0.23,1.378,0.078c0.436-0.152,0.814-0.472,1.033-0.921l3.363-6.978c0.429-0.899,0.053-1.979-0.844-2.411
	l-5.029-2.425c0.434-2.126,0.568-4.326,0.373-6.543l5.265-1.841c0.942-0.328,1.438-1.357,1.11-2.299l-2.555-7.313
	C1378.665,796.953,1377.634,796.458,1376.694,796.787 M1356.542,823.557c-6.747,2.358-14.13-1.2-16.488-7.947
	c-2.358-6.749,1.199-14.134,7.947-16.492c6.75-2.357,14.133,1.2,16.492,7.95C1366.853,813.816,1363.292,821.196,1356.542,823.557"/>
<path fill="#979297" d="M1955.56,1219.875l-8.256,2.885c-1.924-2.908-4.24-5.475-6.849-7.658l3.802-7.885
	c0.323-0.678,0.369-1.453,0.121-2.162c-0.244-0.707-0.766-1.291-1.439-1.613l-10.942-5.273c-0.704-0.34-1.478-0.361-2.161-0.121
	c-0.684,0.236-1.277,0.736-1.617,1.439l-3.803,7.883c-3.328-0.676-6.777-0.891-10.257-0.588l-2.884-8.253
	c-0.516-1.472-2.129-2.251-3.605-1.733l-11.466,4.006c-1.474,0.514-2.25,2.127-1.735,3.605l2.881,8.247
	c-2.902,1.931-5.471,4.247-7.658,6.853l-7.881-3.797c-0.703-0.338-1.479-0.363-2.162-0.123c-0.684,0.24-1.278,0.74-1.617,1.441
	l-5.271,10.939c-0.681,1.406-0.086,3.102,1.319,3.779l7.884,3.799c-0.682,3.334-0.889,6.783-0.588,10.26l-8.25,2.887
	c-1.479,0.516-2.255,2.129-1.738,3.604l4.006,11.461c0.514,1.479,2.131,2.258,3.607,1.738l8.247-2.882
	c1.929,2.909,4.243,5.476,6.856,7.659l-3.803,7.881c-0.326,0.678-0.369,1.453-0.123,2.162c0.25,0.711,0.768,1.293,1.442,1.617
	l10.937,5.273c0.707,0.342,1.484,0.359,2.166,0.123c0.688-0.24,1.277-0.736,1.617-1.443l3.799-7.883
	c3.334,0.678,6.787,0.891,10.26,0.588l2.885,8.252c0.516,1.477,2.126,2.252,3.602,1.736l11.467-4.006
	c1.475-0.516,2.254-2.129,1.736-3.605l-2.884-8.254c2.909-1.928,5.478-4.242,7.661-6.848l7.882,3.799
	c0.704,0.342,1.476,0.361,2.162,0.123c0.685-0.24,1.278-0.738,1.62-1.443l5.273-10.938c0.674-1.408,0.082-3.105-1.326-3.781
	l-7.881-3.801c0.678-3.332,0.889-6.783,0.586-10.256l8.254-2.885c1.476-0.518,2.254-2.129,1.738-3.605l-4.006-11.463
	C1958.649,1220.137,1957.037,1219.361,1955.56,1219.875 M1923.972,1261.842c-10.576,3.695-22.154-1.883-25.848-12.461
	c-3.697-10.578,1.877-22.156,12.459-25.853c10.579-3.698,22.152,1.882,25.85,12.464
	C1940.132,1246.57,1934.55,1258.141,1923.972,1261.842"/>
<path fill="#979297" d="M2116.438,1220.738l-9.443,3.299c-2.2-3.328-4.848-6.264-7.832-8.76l4.348-9.018
	c0.37-0.775,0.422-1.662,0.141-2.473s-0.879-1.477-1.649-1.846l-12.513-6.031c-0.807-0.389-1.69-0.414-2.473-0.139
	c-0.781,0.27-1.461,0.842-1.851,1.648l-4.347,9.014c-3.809-0.771-7.752-1.02-11.731-0.672l-3.298-9.438
	c-0.592-1.684-2.436-2.574-4.124-1.984l-13.112,4.581c-1.686,0.587-2.574,2.435-1.986,4.124l3.297,9.434
	c-3.321,2.207-6.258,4.855-8.76,7.836l-9.014-4.342c-0.805-0.387-1.689-0.416-2.473-0.141c-0.78,0.273-1.461,0.846-1.85,1.646
	l-6.029,12.512c-0.775,1.609-0.098,3.547,1.511,4.324l9.017,4.342c-0.779,3.814-1.017,7.76-0.674,11.736l-9.436,3.301
	c-1.689,0.59-2.578,2.436-1.989,4.121l4.582,13.107c0.589,1.691,2.438,2.582,4.125,1.99l9.437-3.297
	c2.203,3.326,4.852,6.262,7.838,8.76l-4.348,9.014c-0.373,0.773-0.423,1.662-0.141,2.471c0.285,0.814,0.877,1.48,1.65,1.852
	l12.508,6.029c0.808,0.391,1.695,0.412,2.474,0.141c0.788-0.273,1.463-0.842,1.851-1.648l4.348-9.018
	c3.811,0.777,7.759,1.02,11.732,0.672l3.299,9.438c0.588,1.689,2.434,2.576,4.121,1.988l13.112-4.584
	c1.687-0.588,2.578-2.434,1.987-4.123l-3.299-9.439c3.326-2.203,6.263-4.852,8.762-7.832l9.016,4.346
	c0.803,0.391,1.688,0.414,2.471,0.141s1.461-0.846,1.853-1.65l6.03-12.51c0.771-1.611,0.095-3.551-1.514-4.324l-9.017-4.346
	c0.776-3.813,1.019-7.758,0.672-11.732l9.44-3.299c1.685-0.59,2.578-2.434,1.988-4.121l-4.58-13.111
	C2119.972,1221.035,2118.125,1220.148,2116.438,1220.738 M2080.312,1268.734c-12.099,4.225-25.338-2.154-29.562-14.252
	c-4.229-12.1,2.146-25.34,14.247-29.566c12.102-4.23,25.337,2.15,29.566,14.254
	C2098.793,1251.268,2092.411,1264.5,2080.312,1268.734"/>
<path fill="#979297" d="M1179.424,647.999l-5.267,1.842c-1.227-1.856-2.705-3.494-4.368-4.886l2.424-5.031
	c0.207-0.431,0.236-0.926,0.077-1.379c-0.156-0.451-0.488-0.823-0.918-1.029l-6.98-3.364c-0.449-0.217-0.943-0.231-1.379-0.077
	c-0.437,0.151-0.814,0.47-1.032,0.918l-2.424,5.029c-2.125-0.431-4.325-0.569-6.544-0.374l-1.839-5.265
	c-0.33-0.94-1.358-1.436-2.301-1.106l-7.313,2.554c-0.939,0.329-1.436,1.358-1.108,2.299l1.839,5.264
	c-1.852,1.229-3.49,2.708-4.886,4.369l-5.028-2.422c-0.447-0.215-0.942-0.23-1.378-0.077c-0.437,0.151-0.816,0.472-1.031,0.918
	l-3.364,6.979c-0.432,0.898-0.056,1.978,0.843,2.412l5.029,2.422c-0.434,2.127-0.569,4.328-0.378,6.545l-5.261,1.841
	c-0.942,0.328-1.438,1.359-1.109,2.3l2.556,7.311c0.328,0.942,1.36,1.439,2.301,1.109l5.262-1.84
	c1.228,1.856,2.706,3.492,4.37,4.887l-2.424,5.027c-0.208,0.432-0.235,0.928-0.077,1.379c0.158,0.453,0.49,0.824,0.92,1.031
	l6.977,3.365c0.45,0.217,0.945,0.229,1.38,0.077c0.438-0.152,0.816-0.469,1.032-0.919l2.424-5.029
	c2.125,0.433,4.327,0.568,6.544,0.374l1.839,5.264c0.329,0.943,1.359,1.438,2.299,1.109l7.314-2.556
	c0.941-0.329,1.438-1.357,1.109-2.3l-1.841-5.264c1.856-1.23,3.495-2.708,4.888-4.369l5.028,2.423
	c0.448,0.218,0.942,0.231,1.379,0.078c0.436-0.152,0.815-0.471,1.033-0.921l3.363-6.977c0.43-0.899,0.054-1.979-0.844-2.411
	l-5.028-2.424c0.432-2.127,0.567-4.327,0.373-6.544l5.266-1.84c0.94-0.329,1.437-1.358,1.108-2.3l-2.555-7.312
	C1181.395,648.166,1180.364,647.67,1179.424,647.999 M1159.272,674.769c-6.747,2.358-14.131-1.2-16.489-7.947
	c-2.358-6.749,1.2-14.134,7.948-16.491c6.75-2.359,14.132,1.2,16.492,7.949C1169.583,665.028,1166.022,672.41,1159.272,674.769"/>
<path fill="#979297" d="M1653.841,327.176l-5.268,1.841c-1.227-1.855-2.705-3.493-4.367-4.887l2.423-5.029
	c0.209-0.431,0.237-0.926,0.077-1.38c-0.156-0.451-0.486-0.823-0.918-1.028l-6.98-3.365c-0.447-0.217-0.941-0.231-1.377-0.077
	c-0.438,0.152-0.814,0.471-1.033,0.919l-2.424,5.029c-2.125-0.431-4.324-0.569-6.543-0.375l-1.84-5.264
	c-0.33-0.94-1.359-1.438-2.301-1.107l-7.313,2.553c-0.939,0.33-1.438,1.36-1.109,2.301l1.84,5.264
	c-1.852,1.229-3.49,2.707-4.887,4.369l-5.028-2.423c-0.446-0.215-0.94-0.23-1.378-0.076c-0.436,0.151-0.814,0.471-1.031,0.918
	l-3.363,6.979c-0.433,0.897-0.055,1.978,0.844,2.411l5.029,2.423c-0.436,2.126-0.57,4.327-0.379,6.545l-5.263,1.84
	c-0.94,0.329-1.437,1.36-1.108,2.3l2.557,7.311c0.328,0.942,1.359,1.439,2.302,1.109l5.263-1.839
	c1.227,1.856,2.705,3.492,4.369,4.886l-2.425,5.028c-0.207,0.432-0.233,0.928-0.077,1.378c0.158,0.454,0.49,0.825,0.922,1.032
	l6.977,3.364c0.449,0.217,0.943,0.23,1.379,0.078c0.438-0.153,0.816-0.47,1.033-0.92l2.424-5.029
	c2.125,0.434,4.326,0.568,6.543,0.375l1.84,5.263c0.328,0.944,1.357,1.439,2.298,1.11l7.315-2.556
	c0.939-0.329,1.438-1.358,1.107-2.3l-1.841-5.264c1.856-1.231,3.495-2.708,4.888-4.37l5.028,2.424
	c0.448,0.218,0.942,0.231,1.38,0.078c0.436-0.152,0.814-0.471,1.033-0.921l3.361-6.977c0.431-0.899,0.055-1.98-0.842-2.411
	l-5.029-2.425c0.434-2.126,0.568-4.326,0.373-6.543l5.267-1.841c0.94-0.328,1.437-1.357,1.108-2.299l-2.555-7.313
	C1655.81,327.343,1654.78,326.847,1653.841,327.176 M1633.688,353.946c-6.746,2.358-14.131-1.201-16.488-7.947
	c-2.357-6.75,1.199-14.134,7.947-16.493c6.75-2.357,14.133,1.201,16.492,7.95C1643.999,344.206,1640.438,351.586,1633.688,353.946"
	/>
<path fill="#979297" d="M1179.423,560.726l-5.908,2.065c-1.378-2.083-3.035-3.92-4.902-5.482l2.721-5.643
	c0.233-0.484,0.264-1.04,0.085-1.548c-0.174-0.506-0.547-0.923-1.029-1.154l-7.831-3.774c-0.503-0.245-1.058-0.259-1.547-0.087
	c-0.489,0.17-0.913,0.529-1.158,1.03l-2.719,5.643c-2.384-0.484-4.853-0.638-7.341-0.421l-2.064-5.906
	c-0.37-1.054-1.524-1.612-2.581-1.242l-8.205,2.866c-1.054,0.369-1.611,1.524-1.242,2.581l2.062,5.905
	c-2.077,1.379-3.915,3.037-5.481,4.901l-5.641-2.718c-0.502-0.241-1.057-0.258-1.546-0.086c-0.49,0.17-0.915,0.53-1.157,1.03
	l-3.773,7.83c-0.485,1.007-0.063,2.22,0.945,2.705l5.642,2.718c-0.487,2.386-0.638,4.855-0.423,7.343l-5.903,2.066
	c-1.057,0.368-1.614,1.523-1.245,2.579l2.868,8.202c0.368,1.058,1.524,1.614,2.582,1.244l5.903-2.063
	c1.378,2.082,3.037,3.918,4.903,5.482l-2.72,5.64c-0.233,0.484-0.263,1.041-0.086,1.547c0.176,0.508,0.549,0.925,1.032,1.158
	l7.827,3.773c0.505,0.244,1.061,0.258,1.548,0.086c0.491-0.169,0.916-0.525,1.158-1.03l2.72-5.643
	c2.384,0.487,4.854,0.638,7.341,0.42l2.063,5.907c0.368,1.056,1.524,1.613,2.579,1.244l8.206-2.868
	c1.055-0.369,1.613-1.523,1.243-2.579l-2.065-5.907c2.082-1.381,3.921-3.037,5.483-4.902l5.642,2.72
	c0.502,0.244,1.057,0.257,1.546,0.087s0.915-0.529,1.159-1.034l3.773-7.827c0.484-1.008,0.06-2.22-0.947-2.706l-5.641-2.72
	c0.486-2.384,0.637-4.853,0.419-7.34l5.908-2.065c1.055-0.369,1.612-1.523,1.243-2.58l-2.866-8.203
	C1181.634,560.913,1180.479,560.357,1179.423,560.726 M1156.815,590.758c-7.57,2.646-15.853-1.347-18.499-8.917
	c-2.645-7.571,1.346-15.855,8.917-18.501c7.573-2.645,15.854,1.347,18.502,8.918C1168.382,579.83,1164.388,588.111,1156.815,590.758
	"/>
<path fill="#979297" d="M2190.795,408.138l-8.966,3.134c-2.092-3.16-4.607-5.947-7.442-8.321l4.13-8.564
	c0.355-0.734,0.401-1.578,0.133-2.349c-0.269-0.77-0.832-1.402-1.568-1.755l-11.883-5.728c-0.764-0.367-1.606-0.391-2.348-0.131
	c-0.744,0.26-1.388,0.802-1.757,1.567l-4.127,8.561c-3.62-0.734-7.366-0.969-11.144-0.638l-3.135-8.963
	c-0.56-1.602-2.312-2.449-3.916-1.887l-12.453,4.351c-1.603,0.56-2.445,2.314-1.887,3.915l3.133,8.965
	c-3.156,2.094-5.947,4.611-8.32,7.44l-8.563-4.126c-0.765-0.368-1.605-0.392-2.35-0.132c-0.741,0.26-1.385,0.802-1.756,1.566
	l-5.725,11.883c-0.738,1.53-0.097,3.368,1.434,4.105l8.563,4.127c-0.736,3.621-0.972,7.37-0.638,11.144l-8.964,3.133
	c-1.604,0.56-2.45,2.314-1.889,3.917l4.352,12.452c0.561,1.603,2.314,2.448,3.917,1.888l8.963-3.134
	c2.095,3.16,4.61,5.947,7.442,8.321l-4.127,8.562c-0.354,0.734-0.403,1.58-0.131,2.348c0.268,0.771,0.832,1.403,1.563,1.757
	l11.884,5.728c0.768,0.37,1.607,0.391,2.35,0.132c0.744-0.26,1.387-0.801,1.756-1.567l4.127-8.562
	c3.619,0.736,7.369,0.966,11.145,0.637l3.133,8.964c0.561,1.604,2.312,2.449,3.914,1.889l12.453-4.353
	c1.605-0.56,2.448-2.312,1.889-3.917l-3.133-8.963c3.157-2.094,5.946-4.61,8.319-7.441l8.565,4.126
	c0.763,0.371,1.604,0.393,2.347,0.133c0.745-0.26,1.388-0.801,1.756-1.568l5.729-11.88c0.736-1.531,0.094-3.37-1.437-4.106
	l-8.562-4.128c0.736-3.621,0.969-7.368,0.637-11.143l8.966-3.134c1.603-0.56,2.448-2.314,1.886-3.916l-4.352-12.452
	C2194.151,408.423,2192.397,407.577,2190.795,408.138 M2156.481,453.723c-11.49,4.016-24.062-2.044-28.08-13.537
	c-4.017-11.491,2.045-24.064,13.535-28.079c11.494-4.018,24.064,2.043,28.08,13.535
	C2174.034,437.134,2167.976,449.704,2156.481,453.723"/>
<path fill="#979297" d="M1386.726,81.611h-13.457c-1.32-5.204-3.383-10.107-6.06-14.607l9.522-9.523
	c0.818-0.816,1.275-1.922,1.275-3.08c0-1.155-0.457-2.262-1.275-3.079l-13.215-13.214c-0.851-0.85-1.967-1.275-3.082-1.275
	s-2.229,0.425-3.08,1.275l-9.522,9.521c-4.498-2.676-9.4-4.739-14.607-6.062V28.111c0-2.403-1.948-4.353-4.356-4.353h-18.688
	c-2.405,0-4.354,1.95-4.354,4.353v13.456c-5.201,1.323-10.107,3.386-14.605,6.062l-9.521-9.521c-0.853-0.85-1.967-1.275-3.082-1.275
	c-1.115,0-2.229,0.425-3.081,1.275l-13.214,13.214c-1.701,1.7-1.701,4.46,0,6.161l9.522,9.521c-2.676,4.5-4.739,9.403-6.063,14.607
	h-13.453c-2.405,0-4.358,1.951-4.358,4.356v18.687c0,2.407,1.953,4.357,4.358,4.357h13.453c1.323,5.204,3.386,10.108,6.063,14.607
	l-9.522,9.522c-0.815,0.817-1.275,1.924-1.275,3.08c0,1.155,0.46,2.264,1.275,3.081l13.214,13.215
	c0.852,0.851,1.966,1.275,3.081,1.275c1.115,0,2.229-0.424,3.082-1.275l9.521-9.523c4.498,2.677,9.405,4.74,14.605,6.062v13.453
	c0,2.408,1.949,4.357,4.354,4.357h18.688c2.408,0,4.356-1.949,4.356-4.357v-13.453c5.204-1.322,10.109-3.385,14.607-6.062
	l9.522,9.523c0.852,0.851,1.965,1.275,3.08,1.275s2.231-0.424,3.082-1.275l13.215-13.212c1.701-1.704,1.701-4.463,0-6.164
	l-9.522-9.523c2.677-4.498,4.739-9.402,6.06-14.606h13.457c2.404,0,4.354-1.95,4.354-4.357V85.967
	C1391.079,83.562,1389.13,81.611,1386.726,81.611 M1319.524,126.54c-17.244,0-31.228-13.984-31.228-31.23
	c0-17.247,13.984-31.23,31.228-31.23c17.25,0,31.23,13.983,31.23,31.23C1350.755,112.556,1336.774,126.54,1319.524,126.54"/>
<path fill="#979297" d="M1495.562,127.441h-9.602c-0.943-3.713-2.416-7.213-4.327-10.424l6.798-6.795
	c0.582-0.583,0.911-1.372,0.911-2.199c0-0.823-0.329-1.615-0.911-2.197l-9.432-9.429c-0.605-0.607-1.402-0.911-2.198-0.911
	c-0.797,0-1.591,0.304-2.198,0.911l-6.795,6.795c-3.211-1.911-6.707-3.382-10.425-4.327v-9.6c0-1.716-1.39-3.109-3.106-3.109
	h-13.336c-1.717,0-3.107,1.393-3.107,3.109v9.6c-3.713,0.945-7.213,2.416-10.424,4.327l-6.795-6.795
	c-0.608-0.607-1.402-0.911-2.199-0.911c-0.795,0-1.59,0.304-2.198,0.911l-9.429,9.429c-1.215,1.214-1.215,3.183,0,4.396l6.795,6.794
	c-1.911,3.211-3.383,6.711-4.327,10.424h-9.599c-1.717,0-3.11,1.392-3.11,3.108v13.336c0,1.716,1.394,3.108,3.11,3.108h9.599
	c0.944,3.713,2.416,7.213,4.327,10.424l-6.795,6.794c-0.582,0.583-0.91,1.374-0.91,2.197c0,0.826,0.328,1.618,0.91,2.2l9.429,9.43
	c0.608,0.607,1.403,0.909,2.198,0.909c0.797,0,1.591-0.302,2.199-0.909l6.795-6.796c3.211,1.91,6.711,3.382,10.424,4.326v9.6
	c0,1.718,1.391,3.109,3.107,3.109h13.336c1.717,0,3.106-1.391,3.106-3.109v-9.6c3.714-0.944,7.214-2.416,10.425-4.326l6.795,6.796
	c0.607,0.607,1.401,0.909,2.198,0.909c0.796,0,1.593-0.302,2.198-0.909l9.432-9.428c1.213-1.216,1.213-3.185,0-4.399l-6.798-6.795
	c1.911-3.21,3.384-6.71,4.327-10.423h9.602c1.715,0,3.107-1.392,3.107-3.108v-13.336
	C1498.669,128.833,1497.276,127.441,1495.562,127.441 M1447.608,159.502c-12.307,0-22.285-9.979-22.285-22.286
	c0-12.308,9.979-22.285,22.285-22.285c12.309,0,22.285,9.977,22.285,22.285C1469.894,149.523,1459.917,159.502,1447.608,159.502"/>
<path fill="#979297" d="M1399.308,1018.341c64.621,0,117.195,52.574,117.195,117.198c0,64.623-52.574,117.197-117.195,117.197
	c-64.622,0-117.194-52.574-117.194-117.197C1282.114,1070.915,1334.686,1018.341,1399.308,1018.341 M1399.308,991.209
	c-79.586,0-144.329,64.743-144.329,144.33c0,79.58,64.743,144.328,144.329,144.328c79.584,0,144.33-64.748,144.33-144.328
	C1543.638,1055.952,1478.892,991.209,1399.308,991.209"/>
<path fill="#979297" d="M1404.587,1062.088c-11.059-10.997-28.94-10.948-39.934,0.11c-10.998,11.056-10.953,28.933,0.107,39.935
	l33.74,33.406l-33.74,33.404c-11.061,10.99-11.105,28.874-0.107,39.928c10.993,11.061,28.875,11.109,39.934,0.115l53.963-53.428
	v-0.004l0.111-0.109c10.998-11.057,10.942-28.939-0.111-39.928L1404.587,1062.088z"/>
<path fill="#979297" d="M1243.11,1268.592c39.362,0,71.386,32.023,71.386,71.387s-32.024,71.389-71.386,71.389
	c-39.362,0-71.384-32.025-71.384-71.389S1203.748,1268.592,1243.11,1268.592 M1243.11,1252.066
	c-48.477,0-87.913,39.436-87.913,87.912c0,48.475,39.436,87.914,87.913,87.914c48.475,0,87.913-39.439,87.913-87.914
	C1331.023,1291.502,1291.585,1252.066,1243.11,1252.066"/>
<path fill="#979297" d="M1246.327,1295.24c-6.737-6.699-17.628-6.67-24.326,0.066c-6.698,6.734-6.671,17.622,0.066,24.324
	l20.552,20.348l-20.552,20.348c-6.737,6.695-6.764,17.59-0.066,24.322c6.698,6.736,17.589,6.766,24.326,0.068l32.869-32.543v-0.002
	l0.069-0.066c6.697-6.736,6.665-17.629-0.069-24.32L1246.327,1295.24z"/>
<path fill="#979297" d="M80.636,807.395c30.76,0,55.785,25.024,55.785,55.785c0,30.76-25.025,55.786-55.785,55.786
	c-30.76,0-55.783-25.026-55.783-55.786C24.853,832.419,49.876,807.395,80.636,807.395 M80.636,794.479
	c-37.882,0-68.7,30.817-68.7,68.7c0,37.88,30.818,68.699,68.7,68.699c37.881,0,68.7-30.819,68.7-68.699
	C149.336,825.297,118.517,794.479,80.636,794.479"/>
<path fill="#979297" d="M83.15,828.218c-5.266-5.234-13.776-5.212-19.009,0.053c-5.235,5.262-5.214,13.771,0.051,19.007
	l16.061,15.902l-16.061,15.901c-5.265,5.23-5.286,13.743-0.051,19.005c5.233,5.266,13.743,5.288,19.009,0.055l25.685-25.431v-0.003
	l0.054-0.051c5.234-5.265,5.208-13.776-0.054-19.007L83.15,828.218z"/>
<path fill="#979297" d="M112.798,716.229c17.249,0,31.281,14.033,31.281,31.283c0,17.248-14.032,31.28-31.281,31.28
	s-31.28-14.032-31.28-31.28C81.519,730.263,95.549,716.229,112.798,716.229 M112.798,708.988c-21.243,0-38.523,17.28-38.523,38.524
	c0,21.24,17.28,38.522,38.523,38.522c21.242,0,38.523-17.282,38.523-38.522C151.321,726.269,134.041,708.988,112.798,708.988"/>
<path fill="#979297" d="M114.208,727.907c-2.953-2.935-7.725-2.923-10.66,0.029c-2.935,2.949-2.923,7.723,0.03,10.659l9.005,8.918
	l-9.005,8.914c-2.953,2.934-2.965,7.707-0.03,10.657c2.935,2.953,7.707,2.966,10.66,0.03l14.403-14.26v-0.001l0.03-0.029
	c2.935-2.952,2.921-7.725-0.03-10.657L114.208,727.907z"/>
<path fill="#979297" d="M480.773,545.769c17.249,0,31.281,14.032,31.281,31.282c0,17.248-14.032,31.281-31.281,31.281
	s-31.28-14.033-31.28-31.281C449.493,559.8,463.524,545.769,480.773,545.769 M480.773,538.526c-21.243,0-38.523,17.28-38.523,38.524
	c0,21.241,17.28,38.523,38.523,38.523c21.242,0,38.523-17.282,38.523-38.523C519.296,555.807,502.015,538.526,480.773,538.526"/>
<path fill="#979297" d="M482.183,557.445c-2.953-2.935-7.725-2.923-10.66,0.029c-2.935,2.952-2.923,7.723,0.03,10.66l9.005,8.917
	l-9.005,8.915c-2.953,2.933-2.965,7.708-0.03,10.658c2.935,2.952,7.707,2.965,10.66,0.029l14.403-14.259v-0.002l0.03-0.029
	c2.935-2.951,2.92-7.725-0.03-10.657L482.183,557.445z"/>
<path fill="#979297" d="M287.901,568.125c12.633,0,22.91,10.277,22.91,22.91c0,12.632-10.277,22.909-22.91,22.909
	c-12.632,0-22.908-10.277-22.908-22.909C264.993,578.402,275.27,568.125,287.901,568.125 M287.901,562.821
	c-15.557,0-28.213,12.655-28.213,28.214c0,15.555,12.656,28.213,28.213,28.213s28.213-12.658,28.213-28.213
	C316.114,575.477,303.458,562.821,287.901,562.821"/>
<path fill="#979297" d="M288.934,576.677c-2.162-2.149-5.657-2.141-7.807,0.022c-2.149,2.161-2.141,5.656,0.022,7.806l6.595,6.53
	l-6.595,6.53c-2.163,2.149-2.171,5.644-0.022,7.805c2.15,2.163,5.645,2.172,7.807,0.022l10.548-10.443l0.022-0.023
	c2.149-2.161,2.139-5.657-0.022-7.804L288.934,576.677z"/>
<path fill="#979297" d="M379.49,534.897c20.868,0,37.844,16.977,37.844,37.845s-16.976,37.845-37.844,37.845
	s-37.843-16.977-37.843-37.845S358.622,534.897,379.49,534.897 M379.49,526.138c-25.7,0-46.605,20.904-46.605,46.605
	c0,25.698,20.905,46.606,46.605,46.606c25.699,0,46.606-20.908,46.606-46.606C426.096,547.042,405.189,526.138,379.49,526.138"/>
<path fill="#979297" d="M381.195,549.024c-3.572-3.551-9.345-3.535-12.895,0.036c-3.552,3.57-3.538,9.343,0.034,12.896
	l10.895,10.787l-10.895,10.787c-3.572,3.549-3.586,9.323-0.034,12.892c3.55,3.574,9.323,3.588,12.895,0.037l17.425-17.251v-0.001
	l0.036-0.035c3.552-3.573,3.534-9.347-0.036-12.894L381.195,549.024z"/>
<path fill="#979297" d="M702.109,230.18c26.828,0,48.651,21.824,48.651,48.652c0,26.826-21.823,48.651-48.651,48.651
	c-26.827,0-48.65-21.825-48.65-48.651C653.459,252.004,675.282,230.18,702.109,230.18 M702.109,218.917
	c-33.039,0-59.914,26.875-59.914,59.915c0,33.035,26.875,59.914,59.914,59.914c33.037,0,59.915-26.879,59.915-59.914
	C762.024,245.792,735.146,218.917,702.109,218.917"/>
<path fill="#979297" d="M704.301,248.34c-4.592-4.564-12.014-4.545-16.578,0.046c-4.565,4.59-4.548,12.012,0.045,16.579
	l14.006,13.867l-14.006,13.867c-4.593,4.562-4.61,11.987-0.045,16.576c4.564,4.591,11.986,4.611,16.578,0.047l22.401-22.178v-0.002
	l0.046-0.046c4.566-4.591,4.543-12.015-0.046-16.575L704.301,248.34z"/>
<path fill="#979297" d="M700.186,610.33c20.868,0,37.844,16.977,37.844,37.846c0,20.868-16.976,37.844-37.844,37.844
	s-37.844-16.976-37.844-37.844C662.342,627.307,679.317,610.33,700.186,610.33 M700.186,601.569
	c-25.7,0-46.606,20.906-46.606,46.607c0,25.698,20.906,46.605,46.606,46.605c25.699,0,46.606-20.907,46.606-46.605
	C746.792,622.475,725.885,601.569,700.186,601.569"/>
<path fill="#979297" d="M701.891,624.458c-3.572-3.552-9.345-3.536-12.895,0.035c-3.552,3.571-3.538,9.343,0.034,12.896
	l10.895,10.788l-10.895,10.786c-3.572,3.548-3.586,9.324-0.034,12.893c3.55,3.572,9.323,3.587,12.895,0.037l17.425-17.251v-0.003
	l0.036-0.035c3.552-3.571,3.534-9.346-0.036-12.893L701.891,624.458z"/>
<path fill="#979297" d="M602.544,1126.318c22.334,0,40.503,18.17,40.503,40.504s-18.169,40.504-40.503,40.504
	s-40.503-18.17-40.503-40.504S580.21,1126.318,602.544,1126.318 M602.544,1116.941c-27.506,0-49.881,22.375-49.881,49.881
	c0,27.504,22.375,49.881,49.881,49.881c27.503,0,49.88-22.377,49.88-49.881C652.424,1139.316,630.047,1116.941,602.544,1116.941"/>
<path fill="#D73333" d="M604.37,1141.438c-3.823-3.801-10.003-3.783-13.803,0.037c-3.8,3.822-3.785,10,0.039,13.803l11.66,11.545
	l-11.66,11.545c-3.824,3.799-3.839,9.979-0.039,13.799c3.8,3.824,9.98,3.84,13.803,0.039l18.648-18.463v-0.002l0.039-0.039
	c3.801-3.82,3.783-10.002-0.039-13.799L604.37,1141.438z"/>
<path fill="#979297" d="M363.712,1281.74c22.334,0,40.503,18.17,40.503,40.506c0,22.334-18.169,40.502-40.503,40.502
	c-22.335,0-40.503-18.168-40.503-40.502C323.209,1299.91,341.377,1281.74,363.712,1281.74 M363.712,1272.365
	c-27.506,0-49.881,22.373-49.881,49.881c0,27.502,22.375,49.879,49.881,49.879c27.503,0,49.88-22.377,49.88-49.879
	C413.592,1294.738,391.215,1272.365,363.712,1272.365"/>
<path fill="#979297" d="M365.537,1296.861c-3.823-3.801-10.003-3.785-13.803,0.037c-3.8,3.82-3.785,10,0.039,13.801l11.66,11.547
	l-11.66,11.545c-3.824,3.797-3.839,9.979-0.039,13.799c3.8,3.822,9.98,3.84,13.803,0.039l18.648-18.465l0.039-0.039
	c3.801-3.822,3.783-10.002-0.039-13.799L365.537,1296.861z"/>
<path fill="#979297" d="M72.207,957.067c32.33,0,58.633,26.303,58.633,58.633c0,32.331-26.303,58.634-58.633,58.634
	c-32.331,0-58.631-26.303-58.631-58.634C13.576,983.37,39.876,957.067,72.207,957.067 M72.207,943.493
	C32.391,943.493,0,975.884,0,1015.7c0,39.813,32.391,72.206,72.207,72.206c39.815,0,72.208-32.393,72.208-72.206
	C144.415,975.884,112.022,943.493,72.207,943.493"/>
<path fill="#979297" d="M74.849,978.954c-5.534-5.502-14.479-5.479-19.979,0.055c-5.502,5.531-5.481,14.475,0.054,19.979
	l16.88,16.712l-16.88,16.713c-5.535,5.499-5.556,14.446-0.054,19.976c5.5,5.534,14.445,5.558,19.979,0.058l26.998-26.729v-0.002
	l0.056-0.055c5.501-5.532,5.473-14.479-0.056-19.977L74.849,978.954z"/>
<path fill="#979297" d="M1411.655,1305.33c30.762,0,55.787,25.027,55.787,55.789c0,30.764-25.025,55.789-55.787,55.789
	s-55.787-25.025-55.787-55.789C1355.868,1330.357,1380.894,1305.33,1411.655,1305.33 M1411.655,1292.416
	c-37.885,0-68.703,30.818-68.703,68.703c0,37.883,30.818,68.703,68.703,68.703c37.883,0,68.703-30.82,68.703-68.703
	C1480.358,1323.234,1449.538,1292.416,1411.655,1292.416"/>
<path fill="#979297" d="M1414.169,1326.156c-5.267-5.234-13.775-5.213-19.012,0.053c-5.234,5.261-5.214,13.771,0.053,19.008
	l16.063,15.902l-16.063,15.9c-5.267,5.234-5.287,13.746-0.053,19.008c5.236,5.266,13.745,5.287,19.012,0.055l25.687-25.432v-0.004
	l0.054-0.052c5.234-5.263,5.209-13.776-0.054-19.005L1414.169,1326.156z"/>
<path fill="#979297" d="M1523.095,1257.332c19.346,0,35.084,15.738,35.084,35.084s-15.738,35.084-35.084,35.084
	s-35.084-15.738-35.084-35.084S1503.749,1257.332,1523.095,1257.332 M1523.095,1249.209c-23.824,0-43.207,19.383-43.207,43.207
	c0,23.822,19.383,43.205,43.207,43.205s43.207-19.383,43.207-43.205C1566.302,1268.592,1546.919,1249.209,1523.095,1249.209"/>
<path fill="#979297" d="M1524.675,1270.428c-3.311-3.293-8.662-3.277-11.955,0.033c-3.293,3.309-3.278,8.66,0.033,11.955l10.102,10
	l-10.102,10c-3.312,3.291-3.326,8.645-0.033,11.953c3.293,3.311,8.645,3.324,11.955,0.033l16.154-15.994l0.032-0.033
	c3.294-3.311,3.278-8.664-0.032-11.953L1524.675,1270.428z"/>
<path fill="#979297" d="M1523.095,960.383c16.998,0,30.826,13.828,30.826,30.827c0,16.998-13.828,30.826-30.826,30.826
	s-30.826-13.828-30.826-30.826C1492.269,974.211,1506.097,960.383,1523.095,960.383 M1523.095,953.245
	c-20.935,0-37.963,17.03-37.963,37.965c0,20.932,17.028,37.963,37.963,37.963c20.934,0,37.963-17.031,37.963-37.963
	C1561.058,970.275,1544.028,953.245,1523.095,953.245"/>
<path fill="#979297" d="M1524.483,971.89c-2.908-2.892-7.611-2.88-10.504,0.029c-2.895,2.907-2.881,7.609,0.026,10.504l8.877,8.787
	l-8.877,8.786c-2.907,2.892-2.921,7.595-0.026,10.502c2.893,2.91,7.596,2.923,10.504,0.031l14.195-14.054v-0.001l0.027-0.029
	c2.893-2.908,2.879-7.612-0.027-10.502L1524.483,971.89z"/>
<path fill="#979297" d="M1274.392,960.383c16.999,0,30.827,13.828,30.827,30.827c0,16.998-13.828,30.826-30.827,30.826
	c-16.997,0-30.826-13.828-30.826-30.826C1243.566,974.211,1257.395,960.383,1274.392,960.383 M1274.392,953.245
	c-20.932,0-37.963,17.03-37.963,37.965c0,20.932,17.031,37.963,37.963,37.963c20.934,0,37.964-17.031,37.964-37.963
	C1312.356,970.275,1295.326,953.245,1274.392,953.245"/>
<path fill="#979297" d="M1275.781,971.89c-2.908-2.892-7.612-2.88-10.504,0.029c-2.893,2.907-2.881,7.609,0.028,10.504l8.876,8.787
	l-8.876,8.786c-2.909,2.892-2.921,7.595-0.028,10.502c2.892,2.91,7.596,2.923,10.504,0.031l14.195-14.054v-0.001l0.029-0.029
	c2.892-2.908,2.879-7.612-0.029-10.502L1275.781,971.89z"/>
<path fill="#979297" d="M631.619,1400.344c0,13.416-9.435,24.289-21.069,24.289H412.958c-11.64,0-21.07-10.873-21.07-24.289
	c0-13.414,9.43-24.281,21.07-24.281H610.55C622.184,1376.063,631.619,1386.93,631.619,1400.344"/>
<path fill="#979297" d="M592.176,1247.646c-12.128-12.063-31.731-12.012-43.793,0.121l-12.346,12.467v-93.297
	c0-11.635-10.868-21.066-24.284-21.066c-13.413,0-24.283,9.432-24.283,21.066v93.307l-12.353-12.477
	c-12.054-12.133-31.663-12.185-43.787-0.121c-12.131,12.055-12.181,31.662-0.124,43.789l58.587,59.172h0.006l0.124,0.121
	c12.121,12.06,31.731,12.006,43.782-0.121l58.59-59.172C604.356,1279.309,604.301,1259.701,592.176,1247.646"/>
</svg>
